<svg width="203" height="34" fill="none" xmlns="http://www.w3.org/2000/svg"><g clip-path="url(#clip0_71_92)"><path d="M194.142 20.183l-3.349 2.956 2.39 5.59h-3.523l-1.085-3.594-1.592 1.402-.333 2.191h-3.074l1.773-11.808h3.074l-.918 6.115.034.038 3.003-2.89h3.6zM138.39 8.091h9.821l-.418 2.91h-9.821l.418-2.91zm8.86 7.274h-2.941l-1.821 12.522c-.707 4.859-4.505 6.464-8.144 6.379l-55.556.006c-8.647 0-8.328-5.971-8.237-6.832l1.811-12.326c.915-4.896 3.12-7.972 7.69-7.972C83.853 7.142 88.639 0 96.318 0h10.714c5.899 0 7.322 6.904 11.514 6.904h10.153c5.488 0 8.313 1.904 7.316 8.449h-3.685c.58-3.448.247-4.788-3.631-4.788h-10.153c-6.307 0-7.988-6.905-11.514-6.905H96.318c-7.028 0-10.16 6.913-16.233 6.913-1.479 0-3.535.923-4.066 4.54l-1.622 11.059c-.48 3.341 2.852 4.439 4.39 4.439l55.557.002c1.58 0 4.264-.994 4.739-4.273l1.588-10.975h-3.243l.419-2.91h9.821l-.418 2.91zm34.693 13.38h-3.207l.459-2.901h3.19l-.442 2.901zm20.994-8.562l-.302 1.95-4.23 4.349h3.965l-.315 2.246h-7.705l.285-1.932 4.308-4.366h-3.716l.352-2.247h7.358z" fill="#009846"/></g><path fill-rule="evenodd" clip-rule="evenodd" d="M32.849 29.598h-3.152l3.237-18.694h3.152L32.85 29.598zm-17.866-8.446l.122-.9c.13-1.047.113-2.078-.05-3.092a7.952 7.952 0 00-.936-2.763 5.401 5.401 0 00-1.935-1.983c-.82-.503-1.826-.763-3.018-.78-1.234-.024-2.345.2-3.335.67a7.75 7.75 0 00-2.544 1.947 10.488 10.488 0 00-1.74 2.8 12.823 12.823 0 00-.913 3.237l-.122.913a11.35 11.35 0 00.037 3.103 8.139 8.139 0 00.95 2.763 5.597 5.597 0 001.946 1.996c.82.495 1.826.754 3.019.779 1.25.024 2.365-.2 3.347-.67a7.974 7.974 0 002.543-1.947 10.443 10.443 0 001.728-2.811c.438-1.047.739-2.134.9-3.262zm-3.177-.9l-.121.949c-.09.681-.252 1.379-.487 2.093a8.267 8.267 0 01-.95 1.96 4.689 4.689 0 01-1.484 1.423c-.592.357-1.298.52-2.118.487-.77-.024-1.367-.235-1.789-.633a3.296 3.296 0 01-.888-1.521 7.232 7.232 0 01-.256-1.935c0-.674.037-1.294.11-1.862l.121-.95c.098-.681.26-1.375.487-2.08a8.032 8.032 0 01.95-1.948c.405-.6.904-1.075 1.496-1.424.593-.357 1.295-.52 2.106-.487.77.033 1.367.248 1.789.645.422.39.718.889.888 1.497.17.6.256 1.238.256 1.911 0 .665-.037 1.29-.11 1.874zm8.925-.077l-1.635 9.423h-3.152l2.288-13.168h2.946l-.136 1.28a5.256 5.256 0 011.365-1.025c.681-.357 1.472-.527 2.373-.51.722.024 1.319.174 1.79.45.478.276.847.645 1.107 1.107.26.454.425.978.499 1.57.08.592.085 1.209.012 1.85l-1.4 8.446h-3.164l1.424-8.483a3.71 3.71 0 00-.049-1.217 1.373 1.373 0 00-.499-.84c-.26-.21-.64-.32-1.144-.328-.535-.016-1.006.085-1.412.304-.405.22-.75.515-1.034.889a4.623 4.623 0 00-.18.252zm18.398 9.423l2.276-13.168h-3.14l-2.288 13.168h3.152zm.024-17.793c-.34.317-.507.73-.499 1.242.008.494.187.888.536 1.18.349.292.762.434 1.241.426.495-.008.917-.17 1.266-.487.349-.316.519-.726.51-1.229 0-.503-.178-.9-.535-1.193a1.791 1.791 0 00-1.24-.438 1.854 1.854 0 00-1.279.5zm6.012 17.793l1.635-9.423a4.42 4.42 0 01.179-.252c.284-.373.629-.67 1.034-.889.406-.219.876-.32 1.412-.304.503.008.884.118 1.144.329.26.203.426.482.499.84.081.356.097.762.049 1.216l-1.424 8.483h3.164l1.4-8.446a7.408 7.408 0 00-.013-1.85 4.155 4.155 0 00-.499-1.57 2.904 2.904 0 00-1.107-1.107c-.47-.276-1.067-.426-1.79-.45-.9-.017-1.69.153-2.372.51a5.28 5.28 0 00-1.365 1.025l.135-1.28h-2.945l-2.288 13.168h3.152zm14.057-.28c.706.333 1.51.507 2.41.524a7.155 7.155 0 001.935-.244 6.187 6.187 0 001.801-.79 4.974 4.974 0 001.388-1.376l-1.473-1.667a5.9 5.9 0 01-1.521 1.143 3.725 3.725 0 01-1.826.402c-.527-.016-.97-.138-1.327-.365a2.448 2.448 0 01-.84-.888 3.908 3.908 0 01-.4-1.217 5.754 5.754 0 01-.06-.852h8.225l.183-1.351a8.328 8.328 0 00-.073-2.386 5.517 5.517 0 00-.791-2.044 4.174 4.174 0 00-1.534-1.448c-.64-.366-1.42-.556-2.336-.573-.966-.024-1.846.146-2.641.512a6.318 6.318 0 00-2.057 1.52 7.8 7.8 0 00-1.387 2.204 9.017 9.017 0 00-.646 2.58l-.048.499a7.124 7.124 0 00.219 2.446 5.56 5.56 0 001.034 2.008 4.989 4.989 0 001.765 1.363zm.394-7.542l.069-.247c.146-.51.348-.982.608-1.412.268-.43.605-.774 1.01-1.034.406-.268.9-.393 1.485-.377.527.016.945.158 1.254.426.316.26.53.6.644 1.022.122.422.147.872.073 1.35l-.048.28-5.095-.008zm87.129 6.952h3.64l2.349-16.273h-3.644l-2.345 16.273zm-57.765-5.41l-.022-.068h-3.55c-.144 1-.443 1.723-.898 2.162-.454.439-1.082.66-1.883.66-.91 0-1.56-.336-1.943-1-.388-.668-.492-1.593-.318-2.773l.495-3.421c.159-1.119.52-2.024 1.082-2.711.565-.691 1.238-1.035 2.024-1.035.954 0 1.6.206 1.94.619.336.416.436 1.138.291 2.176h3.572l.03-.069c.288-1.817-.059-3.211-1.042-4.18-.986-.97-2.441-1.456-4.37-1.456-1.887 0-3.483.6-4.787 1.795-1.3 1.2-2.101 2.826-2.397 4.884l-.498 3.398c-.289 1.963.088 3.567 1.126 4.812 1.038 1.245 2.497 1.867 4.374 1.87 1.939-.003 3.49-.461 4.65-1.381 1.163-.925 1.87-2.349 2.124-4.281zm41.452 5.427h3.668l1.541-10.63h-3.671l-1.538 10.63zm-1.659-14.4c-1.101-1.26-2.542-1.89-4.322-1.89h-5.77l-2.36 16.29h5.77c1.876 0 3.52-.603 4.927-1.814 1.411-1.206 2.268-2.83 2.571-4.865l.425-2.932c.273-1.932-.141-3.525-1.241-4.789zm-8.37 11.49l1.514-10.47h2.109c.839 0 1.474.34 1.906 1.02.432.675.569 1.588.41 2.73l-.421 2.951c-.166 1.096-.576 1.998-1.234 2.708-.657.706-1.381 1.061-2.175 1.061h-2.109zm-11.496-4.059h5.552l.421-2.91h-5.552l.51-3.501h6.667l.421-2.91h-10.324l-2.36 16.29h10.313l.425-2.91h-6.657l.584-4.059zm-15.242 6.97l.897-6.244h1.97c.779 0 1.333.198 1.665.592.333.397.44.996.325 1.802l-.151.985c-.078.531-.115 1.08-.107 1.657.007.573.136.974.388 1.207h3.778l.033-.225c-.269-.23-.424-.615-.472-1.15a6.423 6.423 0 01.025-1.466l.152-1.03c.133-.955.026-1.765-.318-2.433-.343-.668-.96-1.146-1.854-1.436.901-.367 1.607-.848 2.12-1.444.514-.599.835-1.336.972-2.214.218-1.5-.159-2.689-1.134-3.57-.975-.879-2.342-1.322-4.104-1.322h-5.485l-2.36 16.29h3.66zm3.18-9.154h-1.861l.616-4.227h1.829c.735 0 1.274.198 1.614.592.34.397.462.935.366 1.623-.1.641-.377 1.138-.828 1.489-.45.351-1.03.523-1.736.523zm56.03 9.136h3.64l1.529-10.614H154.4l-1.525 10.614zm1.921-13.355h3.64l.427-2.918h-3.644l-.423 2.918zm11.062.26a5.053 5.053 0 00-1.606 1.38l.099-1.644h-3.405L159 28.729h3.622l1.439-9.84c.25-.26.539-.466.869-.614a2.55 2.55 0 011.063-.226c.459 0 .781.157.972.466.19.308.23.862.113 1.658l-1.256 8.555h3.629l1.256-8.543c.255-1.733.092-3.009-.45-3.82-.543-.813-1.364-1.22-2.46-1.22a4.05 4.05 0 00-1.939.487zm6.51 7.456c-.548 3.585 1.377 5.656 4.788 5.656l.446-2.906c-1.513 0-1.975-1.01-1.611-2.923h6.843l.347-2.266c.48-3.13-.946-5.468-4.157-5.476-3.739-.008-5.838 2.571-6.4 6.246l-.256 1.669zm4.178-2.886c.261-1.124.828-2.123 2.06-2.123 1.357 0 1.247 1.124 1.085 2.188l-3.145-.065z" fill="#952825"/><defs><clipPath id="clip0_71_92"><path fill="#fff" d="M0 0h202.938v34H0z"/></clipPath></defs></svg>