<svg width="55" height="57" fill="none" xmlns="http://www.w3.org/2000/svg"><g fill-rule="evenodd" clip-rule="evenodd"><path d="M5.303 16.12a.621.621 0 01-.622-.622v-4.102a.622.622 0 111.245 0v4.102a.622.622 0 01-.623.622zm0 7.527a.621.621 0 01-.622-.623v-4.101a.622.622 0 011.245 0v4.101a.622.622 0 01-.623.623zm0 7.526a.621.621 0 01-.622-.622v-4.102a.622.622 0 111.245 0v4.102a.622.622 0 01-.623.622zm0 7.527a.621.621 0 01-.622-.623v-4.101a.622.622 0 111.245 0v4.101a.621.621 0 01-.623.623zm0 7.526a.622.622 0 01-.622-.622v-4.102a.622.622 0 111.245 0v4.102a.622.622 0 01-.623.622zM51.321 57H5.303a.621.621 0 01-.622-.622v-7.35a.622.622 0 111.245 0v6.728H51.32a2.242 2.242 0 002.24-2.24V3.484a2.243 2.243 0 00-2.24-2.24H5.926v6.727a.622.622 0 11-1.245 0V.622C4.681.28 4.96 0 5.303 0h46.018a3.489 3.489 0 013.485 3.485v50.03A3.489 3.489 0 0151.32 57z" fill="url(#paint0_linear_115_1518)"/><path d="M2.335 8.593a1.091 1.091 0 000 2.18h5.937a1.091 1.091 0 000-2.18H2.335zm5.937 3.425H2.335A2.337 2.337 0 010 9.684a2.337 2.337 0 012.335-2.335h5.937a2.337 2.337 0 012.334 2.335 2.337 2.337 0 01-2.334 2.334z" fill="url(#paint1_linear_115_1518)"/><path d="M2.335 16.12a1.091 1.091 0 000 2.18h5.937a1.091 1.091 0 000-2.18H2.335zm5.937 3.425H2.335A2.337 2.337 0 010 17.21a2.337 2.337 0 012.335-2.335h5.937a2.337 2.337 0 012.334 2.335 2.337 2.337 0 01-2.334 2.335z" fill="url(#paint2_linear_115_1518)"/><path d="M2.335 23.646a1.091 1.091 0 000 2.18h5.937a1.091 1.091 0 000-2.18H2.335zm5.937 3.425H2.335A2.337 2.337 0 010 24.737a2.337 2.337 0 012.335-2.335h5.937a2.337 2.337 0 012.334 2.335 2.337 2.337 0 01-2.334 2.334z" fill="url(#paint3_linear_115_1518)"/><path d="M2.335 31.173a1.091 1.091 0 000 2.18h5.937a1.091 1.091 0 000-2.18H2.335zm5.937 3.425H2.335A2.337 2.337 0 010 32.263a2.337 2.337 0 012.335-2.334h5.937a2.337 2.337 0 012.334 2.334 2.337 2.337 0 01-2.334 2.335z" fill="url(#paint4_linear_115_1518)"/><path d="M2.335 38.7a1.091 1.091 0 000 2.18h5.937a1.091 1.091 0 000-2.18H2.335zm5.937 3.425H2.335A2.337 2.337 0 010 39.79a2.337 2.337 0 012.335-2.335h5.937a2.337 2.337 0 012.334 2.335 2.337 2.337 0 01-2.334 2.335z" fill="url(#paint5_linear_115_1518)"/><path d="M2.335 46.226a1.091 1.091 0 000 2.18h5.937a1.091 1.091 0 000-2.18H2.335zm5.937 3.425H2.335A2.337 2.337 0 010 47.316a2.337 2.337 0 012.335-2.334h5.937a2.337 2.337 0 012.334 2.334 2.337 2.337 0 01-2.334 2.335z" fill="url(#paint6_linear_115_1518)"/><path d="M16.14 57a.621.621 0 01-.621-.622V.622a.622.622 0 011.244 0v55.756a.621.621 0 01-.622.622z" fill="url(#paint7_linear_115_1518)"/><path d="M35.162 11.896c-1.4 0-2.539 1.14-2.539 2.54 0 1.4 1.139 2.54 2.54 2.54 1.4 0 2.539-1.14 2.539-2.54 0-1.4-1.14-2.54-2.54-2.54zm0 6.324a3.788 3.788 0 01-3.784-3.784 3.789 3.789 0 013.784-3.784 3.789 3.789 0 013.784 3.784 3.788 3.788 0 01-3.784 3.784z" fill="url(#paint8_linear_115_1518)"/><path d="M35.162 9.227c-5.05 0-9.16 4.11-9.16 9.16s4.11 9.159 9.16 9.159 9.159-4.108 9.159-9.159c0-5.05-4.109-9.16-9.16-9.16zm0 19.564c-5.737 0-10.404-4.667-10.404-10.404 0-5.736 4.667-10.403 10.404-10.403 5.736 0 10.404 4.667 10.404 10.403 0 5.737-4.668 10.404-10.404 10.404z" fill="url(#paint9_linear_115_1518)"/><path d="M41.14 26.753a.622.622 0 01-.622-.623v-2.783c0-2.336-2.036-3.168-3.941-3.168h-2.83c-1.905 0-3.94.832-3.94 3.168v2.783a.623.623 0 01-1.245 0v-2.783c0-2.64 2.084-4.413 5.186-4.413h2.829c3.102 0 5.186 1.774 5.186 4.413v2.783a.622.622 0 01-.623.623z" fill="url(#paint10_linear_115_1518)"/><path d="M21.694 47.773H48.63V39.06H21.694v8.712zm27.558 1.244h-28.18a.622.622 0 01-.622-.622v-9.956c0-.343.278-.622.622-.622h28.18c.344 0 .623.279.623.622v9.956a.622.622 0 01-.623.622z" fill="url(#paint11_linear_115_1518)"/><path d="M43.368 42.542H26.956a.622.622 0 010-1.244h16.412a.622.622 0 110 1.244z" fill="url(#paint12_linear_115_1518)"/><path d="M39.88 45.536h-9.435a.622.622 0 010-1.244h9.434a.622.622 0 110 1.244z" fill="url(#paint13_linear_115_1518)"/></g><defs><linearGradient id="paint0_linear_115_1518" x1="1.763" y1="48.824" x2="64.126" y2="26.561" gradientUnits="userSpaceOnUse"><stop stop-color="#26644D"/><stop offset=".804" stop-color="#01D55A"/></linearGradient><linearGradient id="paint1_linear_115_1518" x1="-.617" y1="11.349" x2="7.423" y2="3.934" gradientUnits="userSpaceOnUse"><stop stop-color="#26644D"/><stop offset=".804" stop-color="#01D55A"/></linearGradient><linearGradient id="paint2_linear_115_1518" x1="-.617" y1="18.875" x2="7.423" y2="11.461" gradientUnits="userSpaceOnUse"><stop stop-color="#26644D"/><stop offset=".804" stop-color="#01D55A"/></linearGradient><linearGradient id="paint3_linear_115_1518" x1="-.617" y1="26.402" x2="7.423" y2="18.987" gradientUnits="userSpaceOnUse"><stop stop-color="#26644D"/><stop offset=".804" stop-color="#01D55A"/></linearGradient><linearGradient id="paint4_linear_115_1518" x1="-.617" y1="33.928" x2="7.423" y2="26.514" gradientUnits="userSpaceOnUse"><stop stop-color="#26644D"/><stop offset=".804" stop-color="#01D55A"/></linearGradient><linearGradient id="paint5_linear_115_1518" x1="-.617" y1="41.455" x2="7.423" y2="34.04" gradientUnits="userSpaceOnUse"><stop stop-color="#26644D"/><stop offset=".804" stop-color="#01D55A"/></linearGradient><linearGradient id="paint6_linear_115_1518" x1="-.617" y1="48.981" x2="7.423" y2="41.567" gradientUnits="userSpaceOnUse"><stop stop-color="#26644D"/><stop offset=".804" stop-color="#01D55A"/></linearGradient><linearGradient id="paint7_linear_115_1518" x1="15.446" y1="48.824" x2="17.192" y2="48.809" gradientUnits="userSpaceOnUse"><stop stop-color="#26644D"/><stop offset=".804" stop-color="#01D55A"/></linearGradient><linearGradient id="paint8_linear_115_1518" x1="30.938" y1="17.134" x2="40.051" y2="13.435" gradientUnits="userSpaceOnUse"><stop stop-color="#26644D"/><stop offset=".804" stop-color="#01D55A"/></linearGradient><linearGradient id="paint9_linear_115_1518" x1="23.547" y1="25.806" x2="48.604" y2="15.633" gradientUnits="userSpaceOnUse"><stop stop-color="#26644D"/><stop offset=".804" stop-color="#01D55A"/></linearGradient><linearGradient id="paint10_linear_115_1518" x1="27.794" y1="25.631" x2="40.391" y2="16.996" gradientUnits="userSpaceOnUse"><stop stop-color="#26644D"/><stop offset=".804" stop-color="#01D55A"/></linearGradient><linearGradient id="paint11_linear_115_1518" x1="18.737" y1="47.411" x2="38.047" y2="26.816" gradientUnits="userSpaceOnUse"><stop stop-color="#26644D"/><stop offset=".804" stop-color="#01D55A"/></linearGradient><linearGradient id="paint12_linear_115_1518" x1="25.306" y1="42.364" x2="26.03" y2="38.19" gradientUnits="userSpaceOnUse"><stop stop-color="#26644D"/><stop offset=".804" stop-color="#01D55A"/></linearGradient><linearGradient id="paint13_linear_115_1518" x1="29.201" y1="45.358" x2="30.341" y2="41.386" gradientUnits="userSpaceOnUse"><stop stop-color="#26644D"/><stop offset=".804" stop-color="#01D55A"/></linearGradient></defs></svg>