<svg width="44" height="45" fill="none" xmlns="http://www.w3.org/2000/svg"><path d="M30.34 43.848H12.629a4.039 4.039 0 01-4.034-4.034V5.773a4.039 4.039 0 014.034-4.034h17.713a4.039 4.039 0 014.034 4.034v34.04a4.039 4.039 0 01-4.034 4.035zM12.629 3.458a2.318 2.318 0 00-2.316 2.315v34.04a2.318 2.318 0 002.316 2.316h17.713a2.318 2.318 0 002.315-2.315V5.773a2.318 2.318 0 00-2.315-2.316H12.628z" fill="url(#paint0_linear_62_476)"/><path d="M33.516 8.614H9.453a.86.86 0 110-1.719h24.063a.86.86 0 110 1.719z" fill="url(#paint1_linear_62_476)"/><path d="M33.516 38.692H9.453a.86.86 0 010-1.719h24.063a.86.86 0 010 1.719z" fill="url(#paint2_linear_62_476)"/><path d="M40.82 8.614a1.29 1.29 0 100-2.579 1.29 1.29 0 000 2.579z" fill="url(#paint3_linear_62_476)"/><path d="M3.867 36.114a1.289 1.289 0 100-2.578 1.289 1.289 0 000 2.578z" fill="url(#paint4_linear_62_476)"/><path d="M1.719 18.926a.86.86 0 100-1.718.86.86 0 000 1.718z" fill="url(#paint5_linear_62_476)"/><path d="M38.672 19.786a.86.86 0 100-1.72.86.86 0 000 1.72z" fill="url(#paint6_linear_62_476)"/><path d="M6.016 9.473a.86.86 0 100-1.719.86.86 0 000 1.72z" fill="url(#paint7_linear_62_476)"/><path d="M39.531 37.833a.86.86 0 100-1.72.86.86 0 000 1.72z" fill="url(#paint8_linear_62_476)"/><path d="M20.625 35.254c-4.739 0-8.594-3.855-8.594-8.593 0-4.739 3.855-8.594 8.594-8.594a8.56 8.56 0 015.865 2.313.86.86 0 11-1.173 1.256 6.85 6.85 0 00-4.692-1.85 6.883 6.883 0 00-6.875 6.875 6.883 6.883 0 006.875 6.875 6.883 6.883 0 006.43-9.315.86.86 0 111.606-.61c.37.974.558 2 .558 3.05 0 4.738-3.855 8.593-8.594 8.593z" fill="url(#paint9_linear_62_476)"/><path d="M21.675 30.957a.857.857 0 01-.608-.251l-4.253-4.254a2.561 2.561 0 01-.756-1.823 2.58 2.58 0 014.401-1.823l1.216 1.215 4.861-4.86a2.581 2.581 0 013.646 0 2.581 2.581 0 010 3.645l-7.9 7.9a.857.857 0 01-.607.252zm-3.038-7.187a.86.86 0 00-.608 1.467l3.646 3.646 7.292-7.292a.86.86 0 00-1.215-1.216l-5.47 5.47a.86.86 0 01-1.215 0l-1.823-1.824a.857.857 0 00-.607-.25z" fill="url(#paint10_linear_62_476)"/><path d="M19.766 12.051H12.89a.86.86 0 110-1.719h6.875a.86.86 0 110 1.72z" fill="url(#paint11_linear_62_476)"/><path d="M19.766 15.489H12.89a.86.86 0 110-1.719h6.875a.86.86 0 110 1.719z" fill="url(#paint12_linear_62_476)"/><defs><linearGradient id="paint0_linear_62_476" x1="7.093" y1="37.808" x2="41.153" y2="29.343" gradientUnits="userSpaceOnUse"><stop stop-color="#26644D"/><stop offset=".804" stop-color="#01D55A"/></linearGradient><linearGradient id="paint1_linear_62_476" x1="7.093" y1="8.367" x2="8.043" y2="2.584" gradientUnits="userSpaceOnUse"><stop stop-color="#26644D"/><stop offset=".804" stop-color="#01D55A"/></linearGradient><linearGradient id="paint2_linear_62_476" x1="7.093" y1="38.445" x2="8.043" y2="32.663" gradientUnits="userSpaceOnUse"><stop stop-color="#26644D"/><stop offset=".804" stop-color="#01D55A"/></linearGradient><linearGradient id="paint3_linear_62_476" x1="39.381" y1="8.244" x2="42.486" y2="6.983" gradientUnits="userSpaceOnUse"><stop stop-color="#26644D"/><stop offset=".804" stop-color="#01D55A"/></linearGradient><linearGradient id="paint4_linear_62_476" x1="2.428" y1="35.744" x2="5.533" y2="34.483" gradientUnits="userSpaceOnUse"><stop stop-color="#26644D"/><stop offset=".804" stop-color="#01D55A"/></linearGradient><linearGradient id="paint5_linear_62_476" x1=".759" y1="18.68" x2="2.829" y2="17.839" gradientUnits="userSpaceOnUse"><stop stop-color="#26644D"/><stop offset=".804" stop-color="#01D55A"/></linearGradient><linearGradient id="paint6_linear_62_476" x1="37.712" y1="19.539" x2="39.782" y2="18.699" gradientUnits="userSpaceOnUse"><stop stop-color="#26644D"/><stop offset=".804" stop-color="#01D55A"/></linearGradient><linearGradient id="paint7_linear_62_476" x1="5.056" y1="9.227" x2="7.126" y2="8.386" gradientUnits="userSpaceOnUse"><stop stop-color="#26644D"/><stop offset=".804" stop-color="#01D55A"/></linearGradient><linearGradient id="paint8_linear_62_476" x1="38.572" y1="37.586" x2="40.642" y2="36.746" gradientUnits="userSpaceOnUse"><stop stop-color="#26644D"/><stop offset=".804" stop-color="#01D55A"/></linearGradient><linearGradient id="paint9_linear_62_476" x1="11.031" y1="32.789" x2="31.729" y2="24.386" gradientUnits="userSpaceOnUse"><stop stop-color="#26644D"/><stop offset=".804" stop-color="#01D55A"/></linearGradient><linearGradient id="paint10_linear_62_476" x1="15.192" y1="29.157" x2="32.138" y2="21.003" gradientUnits="userSpaceOnUse"><stop stop-color="#26644D"/><stop offset=".804" stop-color="#01D55A"/></linearGradient><linearGradient id="paint11_linear_62_476" x1="11.531" y1="11.805" x2="13.885" y2="7.026" gradientUnits="userSpaceOnUse"><stop stop-color="#26644D"/><stop offset=".804" stop-color="#01D55A"/></linearGradient><linearGradient id="paint12_linear_62_476" x1="11.531" y1="15.242" x2="13.885" y2="10.463" gradientUnits="userSpaceOnUse"><stop stop-color="#26644D"/><stop offset=".804" stop-color="#01D55A"/></linearGradient></defs></svg>