<svg width="22" height="22" fill="none" xmlns="http://www.w3.org/2000/svg"><path d="M19.046 5.915L13.26.127A.435.435 0 0012.95 0H4.796C3.806 0 3 .806 3 1.796v18.408C3 21.194 3.806 22 4.796 22h12.582c.99 0 1.796-.806 1.796-1.796V6.222a.435.435 0 00-.128-.307zm-5.66-4.43l4.303 4.302h-3.376a.928.928 0 01-.927-.926V1.485zm4.918 18.719c0 .51-.416.926-.926.926H4.796a.928.928 0 01-.926-.926V1.796c0-.51.415-.926.926-.926h7.72v3.99c0 .99.806 1.796 1.796 1.796h3.992v13.547z" fill="#952825"/><path d="M14.478 11.043H7.522a.435.435 0 100 .87h6.956a.435.435 0 100-.87zm0 1.943H7.522a.435.435 0 000 .87h6.956a.435.435 0 100-.87zm0 1.942H7.522a.435.435 0 000 .87h6.956a.435.435 0 100-.87zm-2.261 1.942H7.522a.435.435 0 000 .87h4.695a.435.435 0 100-.87z" fill="#952825"/></svg>