<svg width="57" height="57" fill="none" xmlns="http://www.w3.org/2000/svg"><mask id="a" style="mask-type:luminance" maskUnits="userSpaceOnUse" x="0" y="0" width="57" height="57"><path d="M56.25 56.25V.75H.75v55.5h55.5z" fill="#fff" stroke="#fff" stroke-width="1.5"/></mask><g mask="url(#a)" stroke-width="1.5" stroke-miterlimit="10" stroke-linecap="round" stroke-linejoin="round"><path d="M35.464 7.125H5.566a4.453 4.453 0 00-4.453 4.453v33.844a4.453 4.453 0 004.453 4.453h45.868a4.453 4.453 0 004.453-4.453V11.578a4.453 4.453 0 00-4.453-4.453H44.37" stroke="url(#paint0_linear_118_1985)"/><path d="M55.608 13.36H1.392" stroke="url(#paint1_linear_118_1985)"/><path d="M24.454 43.64H1.392" stroke="url(#paint2_linear_118_1985)"/><path d="M55.608 43.64H33.361" stroke="url(#paint3_linear_118_1985)"/><path d="M50.21 36.637v-4.492a1.997 1.997 0 00-1.997-1.997H34.837a1.997 1.997 0 00-1.997 1.997v4.492h17.37z" stroke="url(#paint4_linear_118_1985)"/><path d="M34.837 30.148l1.091-4.441a2.13 2.13 0 012.07-1.623h7.055c.982 0 1.836.67 2.07 1.623l1.09 4.441" stroke="url(#paint5_linear_118_1985)"/><path d="M47.03 38.297v-1.66" stroke="url(#paint6_linear_118_1985)"/><path d="M36.02 38.297v-1.66" stroke="url(#paint7_linear_118_1985)"/><path d="M48.213 30.148l1.477-1.476" stroke="url(#paint8_linear_118_1985)"/><path d="M34.837 30.148l-1.476-1.476" stroke="url(#paint9_linear_118_1985)"/><path d="M4.896 18.534H34.27" stroke="url(#paint10_linear_118_1985)"/><path d="M5.245 23.78h23.43" stroke="url(#paint11_linear_118_1985)"/><path d="M5.245 29.024h23.43" stroke="url(#paint12_linear_118_1985)"/><path d="M38.563 18.703h8.048" stroke="url(#paint13_linear_118_1985)"/><path d="M5.566 38.334h5.22" stroke="url(#paint14_linear_118_1985)"/><path d="M16.365 38.334h5.233" stroke="url(#paint15_linear_118_1985)"/></g><defs><linearGradient id="paint0_linear_118_1985" x1="-2.075" y1="13.257" x2="58.396" y2="44.711" gradientUnits="userSpaceOnUse"><stop stop-color="#26644D"/><stop offset=".804" stop-color="#01D55A"/></linearGradient><linearGradient id="paint1_linear_118_1985" x1="-1.765" y1="12.503" x2="-1.608" y2="15.951" gradientUnits="userSpaceOnUse"><stop stop-color="#26644D"/><stop offset=".804" stop-color="#01D55A"/></linearGradient><linearGradient id="paint2_linear_118_1985" x1=".049" y1="42.784" x2=".414" y2="46.2" gradientUnits="userSpaceOnUse"><stop stop-color="#26644D"/><stop offset=".804" stop-color="#01D55A"/></linearGradient><linearGradient id="paint3_linear_118_1985" x1="32.066" y1="42.784" x2="32.444" y2="46.197" gradientUnits="userSpaceOnUse"><stop stop-color="#26644D"/><stop offset=".804" stop-color="#01D55A"/></linearGradient><linearGradient id="paint4_linear_118_1985" x1="31.829" y1="31.079" x2="43.001" y2="43.219" gradientUnits="userSpaceOnUse"><stop stop-color="#26644D"/><stop offset=".804" stop-color="#01D55A"/></linearGradient><linearGradient id="paint5_linear_118_1985" x1="34.059" y1="24.954" x2="44.472" y2="34.279" gradientUnits="userSpaceOnUse"><stop stop-color="#26644D"/><stop offset=".804" stop-color="#01D55A"/></linearGradient><linearGradient id="paint6_linear_118_1985" x1="46.972" y1="36.875" x2="48.296" y2="37.199" gradientUnits="userSpaceOnUse"><stop stop-color="#26644D"/><stop offset=".804" stop-color="#01D55A"/></linearGradient><linearGradient id="paint7_linear_118_1985" x1="35.962" y1="36.875" x2="37.286" y2="37.199" gradientUnits="userSpaceOnUse"><stop stop-color="#26644D"/><stop offset=".804" stop-color="#01D55A"/></linearGradient><linearGradient id="paint8_linear_118_1985" x1="48.127" y1="28.883" x2="49.906" y2="29.605" gradientUnits="userSpaceOnUse"><stop stop-color="#26644D"/><stop offset=".804" stop-color="#01D55A"/></linearGradient><linearGradient id="paint9_linear_118_1985" x1="33.275" y1="28.883" x2="35.053" y2="29.605" gradientUnits="userSpaceOnUse"><stop stop-color="#26644D"/><stop offset=".804" stop-color="#01D55A"/></linearGradient><linearGradient id="paint10_linear_118_1985" x1="3.186" y1="19.39" x2="3.473" y2="15.959" gradientUnits="userSpaceOnUse"><stop stop-color="#26644D"/><stop offset=".804" stop-color="#01D55A"/></linearGradient><linearGradient id="paint11_linear_118_1985" x1="3.881" y1="24.636" x2="4.24" y2="21.218" gradientUnits="userSpaceOnUse"><stop stop-color="#26644D"/><stop offset=".804" stop-color="#01D55A"/></linearGradient><linearGradient id="paint12_linear_118_1985" x1="3.881" y1="29.881" x2="4.24" y2="26.464" gradientUnits="userSpaceOnUse"><stop stop-color="#26644D"/><stop offset=".804" stop-color="#01D55A"/></linearGradient><linearGradient id="paint13_linear_118_1985" x1="38.094" y1="17.847" x2="39.061" y2="21.006" gradientUnits="userSpaceOnUse"><stop stop-color="#26644D"/><stop offset=".804" stop-color="#01D55A"/></linearGradient><linearGradient id="paint14_linear_118_1985" x1="5.263" y1="37.477" x2="6.596" y2="40.303" gradientUnits="userSpaceOnUse"><stop stop-color="#26644D"/><stop offset=".804" stop-color="#01D55A"/></linearGradient><linearGradient id="paint15_linear_118_1985" x1="16.061" y1="37.477" x2="17.392" y2="40.306" gradientUnits="userSpaceOnUse"><stop stop-color="#26644D"/><stop offset=".804" stop-color="#01D55A"/></linearGradient></defs></svg>