<svg width="165" height="27" fill="none" xmlns="http://www.w3.org/2000/svg"><g clip-path="url(#clip0_119_2241)"><path d="M158.106 16.028l-2.606 2.347 1.86 4.439h-2.742l-.845-2.854-1.239 1.114-.26 1.74h-2.392l1.38-9.377h2.393l-.715 4.855.026.031 2.338-2.295h2.802zm-43.392-9.603h7.644l-.326 2.31h-7.644l.326-2.31zm6.895 5.777h-2.288l-1.418 9.944c-.55 3.858-3.506 5.133-6.338 5.065l-43.24.005c-6.73 0-6.48-4.742-6.41-5.425l1.41-9.789c.71-3.887 2.427-6.33 5.984-6.33C72.268 5.672 75.993 0 81.97 0h8.339c4.591 0 5.699 5.483 8.96 5.483h7.903c4.272 0 6.47 1.512 5.695 6.71h-2.869c.452-2.739.192-3.803-2.826-3.803H99.27c-4.908 0-6.217-5.483-8.961-5.483H81.97c-5.47 0-7.907 5.49-12.634 5.49-1.151 0-2.751.732-3.165 3.605l-1.262 8.782c-.374 2.653 2.22 3.525 3.418 3.525l43.239.002c1.23 0 3.318-.79 3.688-3.394l1.236-8.715h-2.524l.326-2.31h7.644l-.326 2.31zm27.002 10.625h-2.496l.357-2.304h2.484l-.345 2.304zm16.34-6.799l-.235 1.548-3.292 3.454h3.086l-.245 1.784h-5.997l.222-1.535 3.353-3.467h-2.893l.274-1.784h5.727z" fill="#009846"/><path fill-rule="evenodd" clip-rule="evenodd" d="M121.217 22.814h2.833l1.828-12.923h-2.836l-1.825 12.923zm-44.959-4.296l-.017-.054h-2.763c-.112.794-.345 1.367-.699 1.716-.353.349-.842.524-1.466.524-.707 0-1.213-.266-1.512-.794-.302-.53-.382-1.265-.247-2.201l.385-2.717c.124-.889.405-1.608.842-2.154.44-.548.963-.821 1.576-.821.742 0 1.245.164 1.51.491.26.33.338.904.226 1.729h2.78l.023-.055c.224-1.444-.046-2.55-.81-3.32-.768-.77-1.9-1.156-3.401-1.156-1.47 0-2.712.476-3.726 1.425-1.012.953-1.636 2.244-1.866 3.879l-.388 2.699c-.224 1.558.069 2.832.877 3.82.808.989 1.943 1.483 3.404 1.486 1.509-.003 2.716-.367 3.619-1.098.905-.733 1.455-1.865 1.653-3.399zm32.263 4.31h2.854l1.2-8.443h-2.858l-1.196 8.442zm-1.292-11.436c-.857-1-1.978-1.5-3.364-1.5h-4.49l-1.838 12.935h4.491c1.461 0 2.74-.479 3.835-1.44 1.098-.958 1.765-2.247 2.001-3.864l.331-2.328c.212-1.535-.11-2.8-.966-3.803zm-6.515 9.125l1.179-8.315h1.642c.652 0 1.147.27 1.483.81.336.536.443 1.26.319 2.168l-.328 2.343c-.129.87-.448 1.587-.96 2.15-.512.562-1.075.844-1.693.844h-1.642zm-8.947-3.224h4.321l.328-2.31h-4.321l.397-2.781h5.189l.328-2.311h-8.036l-1.837 12.936h8.027l.33-2.31h-5.18l.454-3.224zm-11.863 5.534l.699-4.958h1.532c.607 0 1.038.158 1.297.47.258.316.342.792.253 1.431l-.118.783a8.49 8.49 0 00-.083 1.316c.005.455.106.773.301.958h2.941l.026-.179c-.21-.182-.33-.488-.368-.913a5.167 5.167 0 01.02-1.164l.118-.819c.104-.758.02-1.4-.247-1.931-.267-.531-.748-.91-1.443-1.14.701-.292 1.25-.674 1.65-1.147.4-.476.65-1.061.756-1.759.17-1.191-.124-2.134-.882-2.835-.76-.697-1.823-1.049-3.194-1.049h-4.27l-1.837 12.936h2.85zm2.475-7.269h-1.448l.48-3.356h1.423c.572 0 .992.157 1.256.47.264.315.36.743.285 1.288-.078.51-.294.904-.644 1.183-.351.279-.802.415-1.352.415zm43.608 7.256h2.833l1.19-8.429h-2.836l-1.187 8.429zm1.496-10.605h2.833l.332-2.318h-2.836l-.329 2.318zm8.609.205c-.471.257-.887.62-1.25 1.096l.077-1.305h-2.65l-1.514 10.609h2.819l1.12-7.814c.194-.206.419-.37.676-.488.257-.118.531-.178.828-.178.356 0 .607.124.756.369.148.245.179.685.088 1.317l-.977 6.794h2.824l.978-6.785c.198-1.376.071-2.389-.351-3.034-.423-.645-1.062-.969-1.915-.969a3.1 3.1 0 00-1.509.388zm5.067 5.921c-.427 2.848 1.072 4.492 3.727 4.492l.346-2.308c-1.177 0-1.536-.802-1.253-2.321h5.326l.27-1.8c.373-2.486-.736-4.342-3.236-4.348-2.91-.006-4.543 2.042-4.981 4.96l-.199 1.325zm3.252-2.29c.203-.894.644-1.687 1.603-1.687 1.056 0 .971.892.845 1.738l-2.448-.052zM10.193 17.28l-.067.597a9.388 9.388 0 01-.627 2.303 7.356 7.356 0 01-1.204 1.98 5.53 5.53 0 01-1.773 1.364c-.68.33-1.452.486-2.316.47-.825-.018-1.524-.2-2.098-.547A3.933 3.933 0 01.753 22.05a5.672 5.672 0 01-.66-1.936 8.066 8.066 0 01-.034-2.201l.067-.589c.112-.796.32-1.56.627-2.295a7.427 7.427 0 011.213-1.962 5.49 5.49 0 011.772-1.364c.686-.33 1.455-.487 2.308-.47.825.012 1.521.194 2.09.546.574.347 1.025.81 1.354 1.39a5.49 5.49 0 01.67 1.937c.11.711.122 1.436.033 2.176zm-2.55.63l.083-.613c.045-.387.067-.805.067-1.254a5.011 5.011 0 00-.15-1.306 2.138 2.138 0 00-.569-1.032c-.267-.273-.655-.42-1.162-.443-.546-.017-1.015.094-1.405.332a3.071 3.071 0 00-.97.973c-.256.404-.46.847-.61 1.33-.145.478-.25.948-.318 1.408l-.075.614c-.05.381-.078.802-.083 1.263 0 .455.053.893.158 1.314.106.415.296.759.569 1.032.273.273.663.42 1.17.443.541.017 1.004-.096 1.388-.34.39-.245.717-.57.979-.973.262-.41.468-.853.618-1.331.15-.483.254-.956.31-1.416zm14.94-6.508l-2.115 12.42h-2.375l-3.369-8.42-1.43 8.42h-2.45l2.108-12.42h2.382l3.378 8.428 1.43-8.428h2.441zm7.592 12.42l.342-1.996h-5.161l1.775-10.424h-2.458l-2.107 12.42h7.609zm6.103-12.42l-2.107 12.42h-2.45l2.116-12.42h2.44zm9.773 12.42l2.116-12.42h-2.442l-1.43 8.428-3.377-8.428h-2.383l-2.107 12.42h2.45l1.43-8.42 3.369 8.42h2.374zm10.384-1.996l-.342 1.996H48.15l2.107-12.42h7.934l-.343 2.005h-5.474l-.52 3.054h4.673l-.334 1.945h-4.67l-.583 3.42h5.495zm1.614-.102c-.256.25-.382.569-.376.955.005.376.136.68.393.913.262.228.571.339.928.333a1.3 1.3 0 00.944-.375c.262-.25.39-.57.385-.956-.005-.375-.14-.677-.401-.904a1.287 1.287 0 00-.92-.341 1.33 1.33 0 00-.953.375z" fill="#952825"/></g><defs><clipPath id="clip0_119_2241"><path fill="#fff" d="M0 0h165v27H0z"/></clipPath></defs></svg>