<svg width="18" height="18" fill="none" xmlns="http://www.w3.org/2000/svg"><g clip-path="url(#clip0_62_414)" fill="#009846"><path d="M15.233 2.708A8.673 8.673 0 009.074.167a8.718 8.718 0 00-6.167 2.539 8.585 8.585 0 00-2.574 6.13v.004c0 1.398.368 2.808 1.065 4.095l-1.04 4.732 4.785-1.089a8.76 8.76 0 003.928.934h.004a8.718 8.718 0 006.167-2.54 8.575 8.575 0 002.574-6.13c.001-2.295-.916-4.473-2.583-6.134zM9.074 16.146h-.003a7.383 7.383 0 01-3.509-.89l-.226-.123-3.182.724.69-3.141-.132-.23c-.663-1.143-1.013-2.404-1.013-3.648.003-4.026 3.31-7.306 7.375-7.306a7.313 7.313 0 015.195 2.144c1.407 1.402 2.182 3.237 2.181 5.166-.001 4.027-3.31 7.304-7.376 7.304z"/><path d="M6.696 5.015h-.383c-.133 0-.35.05-.533.25-.183.199-.7.68-.7 1.661 0 .98.717 1.928.816 2.061.1.133 1.384 2.21 3.416 3.009 1.69.663 2.033.531 2.4.498.366-.033 1.182-.482 1.349-.947.167-.465.167-.864.117-.948-.05-.083-.184-.133-.384-.232-.2-.1-1.18-.59-1.363-.657-.183-.066-.316-.1-.45.1-.133.2-.526.66-.643.793-.116.133-.233.15-.433.05-.2-.1-.837-.314-1.601-.992-.595-.529-1.007-1.203-1.124-1.402-.116-.2-.012-.307.088-.407.09-.089.211-.21.311-.327.1-.117.129-.2.195-.333.067-.133.034-.249-.016-.349-.05-.1-.434-1.085-.612-1.479-.15-.332-.307-.343-.45-.349z"/></g><defs><clipPath id="clip0_62_414"><path fill="#fff" transform="translate(.333 .167)" d="M0 0h17.5v17.5H0z"/></clipPath></defs></svg>