<svg width="43" height="44" fill="none" xmlns="http://www.w3.org/2000/svg"><g clip-path="url(#clip0_62_429)"><path d="M11.185 20.817l-3.308-.73c-.909-.2-1.752.531-1.752 1.46v1.394c0 1.129.843 1.394 1.881 1.394h3.633c.714 0 1.427-.132 1.427-.929v-.2c0-1.194-.778-2.19-1.88-2.389zm-3.827 2.124v-1.46c0-.133.13-.266.26-.2l3.308.731c.454.133.778.531.843.996-2.27 0-4.217 0-4.411-.067z" fill="url(#paint0_linear_62_429)"/><path d="M40.636 13.715l-4.67-2.257c-1.557-.73-3.244-.996-4.866-.664l-.713-1.46c-.52-1.328-1.752-2.257-3.179-2.257h-15.18c-1.427 0-2.66.863-3.178 2.19l-2.53 5.377a3.149 3.149 0 00-2.595-1.394H2.622c-.973 0-1.751.796-1.751 1.792v.73c0 .996.778 1.793 1.751 1.793H4.31c-.714.929-1.038 2.124-1.038 3.319v3.982c0 1.527.519 2.987 1.557 4.249v2.987c0 1.327 1.038 2.39 2.335 2.39h2.4c1.298 0 2.336-1.063 2.336-2.39v-1.195h12.974c2.854 3.983 7.33 5.708 7.395 5.708.13.067.26.067.454 0 .065-.066 9.666-3.65 9.666-12.612V16.57c0-1.195-.714-2.323-1.752-2.854zM10.017 9.798a2.111 2.111 0 012.011-1.394h15.18c.908 0 1.687.531 2.076 1.46l.584 1.262c-.26.066-.52.199-.779.332l-4.67 2.257c-1.038.53-1.752 1.593-1.752 2.788H6.774c.26-.399 0 .265 3.243-6.705zm-7.849 5.974v-.73c0-.265.195-.464.454-.464h1.103c1.297 0 1.751 1.194 1.881 1.394-.065.132-.13.199-.26.331H2.623c-.26-.066-.454-.265-.454-.53zm8.433 16.263c0 .598-.454 1.062-1.038 1.062H7.098c-.584.067-1.038-.464-1.038-1.062V30.11a5.11 5.11 0 002.595.73h1.946v1.195zm-2.01-2.456c-2.336 0-4.152-2.323-4.152-4.779v-3.983c0-1.128.454-2.19 1.232-3.053h16.996v5.841h-7.136a.657.657 0 00-.648.664c0 .398.26.664.648.664h7.201c.065.464.065.863.195 1.261H15.53a.657.657 0 00-.648.664c0 .398.26.663.648.663h7.655c.26.73.52 1.46.908 2.058H8.59zm32.5-5.576c0 7.369-7.266 10.754-8.563 11.285-4.671-1.925-8.563-6.04-8.563-11.285V16.57c0-.73.389-1.328 1.038-1.66l4.67-2.256c1.882-.93 3.957-.93 5.839 0l4.67 2.256c.584.332 1.038.93 1.038 1.66v7.434h-.13z" fill="url(#paint1_linear_62_429)"/><path d="M38.885 16.436l-4.282-2.057a4.713 4.713 0 00-4.216 0l-4.217 2.057c-.194.133-.389.332-.389.598v6.97c0 5.243 4.476 8.098 6.422 9.093a.88.88 0 00.584 0c1.946-.995 6.422-3.85 6.422-9.094v-6.97a.7.7 0 00-.324-.597zm-.908 7.567c0 4.249-3.633 6.771-5.45 7.767-2.14-1.195-5.449-3.585-5.449-7.767v-6.571l3.893-1.925a3.652 3.652 0 013.113 0l3.893 1.925v6.572z" fill="url(#paint2_linear_62_429)"/><path d="M29.998 23.804c-.26-.199-.65-.132-.909.133-.259.266-.13.664.13.93l2.465 1.924c.26.2.649.133.909-.132l3.632-4.846c.195-.266.13-.664-.13-.93-.259-.198-.648-.132-.908.133l-3.243 4.315-1.946-1.527z" fill="url(#paint3_linear_62_429)"/></g><defs><linearGradient id="paint0_linear_62_429" x1="5.721" y1="23.721" x2="12.515" y2="19.25" gradientUnits="userSpaceOnUse"><stop stop-color="#26644D"/><stop offset=".804" stop-color="#01D55A"/></linearGradient><linearGradient id="paint1_linear_62_429" x1="-1.546" y1="32.421" x2="42.424" y2="7.374" gradientUnits="userSpaceOnUse"><stop stop-color="#26644D"/><stop offset=".804" stop-color="#01D55A"/></linearGradient><linearGradient id="paint2_linear_62_429" x1="24.999" y1="30.384" x2="42.439" y2="25.449" gradientUnits="userSpaceOnUse"><stop stop-color="#26644D"/><stop offset=".804" stop-color="#01D55A"/></linearGradient><linearGradient id="paint3_linear_62_429" x1="28.518" y1="26.027" x2="36.886" y2="21.937" gradientUnits="userSpaceOnUse"><stop stop-color="#26644D"/><stop offset=".804" stop-color="#01D55A"/></linearGradient><clipPath id="clip0_62_429"><path fill="#fff" transform="translate(.87 .638)" d="M0 0h41.517v42.483H0z"/></clipPath></defs></svg>