<svg width="21" height="21" fill="none" xmlns="http://www.w3.org/2000/svg"><g fill="#fff" clip-path="url(#clip0_62_394)"><path d="M1.846 9.885h6.193a1.848 1.848 0 001.846-1.846V1.846A1.848 1.848 0 008.039 0H1.846A1.848 1.848 0 000 1.846v6.193c0 1.018.828 1.846 1.846 1.846zm1.271-5.537h1.23v-1.23a.615.615 0 111.231 0v1.23h1.23a.615.615 0 110 1.23h-1.23v1.23a.615.615 0 11-1.23 0v-1.23h-1.23a.615.615 0 110-1.23zM19.154 0h-6.193a1.848 1.848 0 00-1.846 1.846v6.193c0 1.018.828 1.846 1.846 1.846h6.193A1.848 1.848 0 0021 8.039V1.846A1.848 1.848 0 0019.154 0zm-1.23 5.578H14.19a.615.615 0 110-1.23h3.733a.615.615 0 110 1.23zm1.23 5.537h-6.193a1.848 1.848 0 00-1.846 1.846v6.193c0 1.018.828 1.846 1.846 1.846h6.193A1.848 1.848 0 0021 19.154v-6.193a1.848 1.848 0 00-1.846-1.846zm-1.23 6.768H14.19a.615.615 0 110-1.23h3.733a.615.615 0 110 1.23zm0-2.461H14.19a.615.615 0 110-1.23h3.733a.615.615 0 110 1.23zm-8.039 3.732v-6.193a1.848 1.848 0 00-1.846-1.846H1.846A1.848 1.848 0 000 12.961v6.193C0 20.172.828 21 1.846 21h6.193a1.848 1.848 0 001.846-1.846zm-3.182-2.247a.615.615 0 11-.87.87l-.87-.87-.87.87a.615.615 0 11-.87-.87l.87-.87-.87-.87a.615.615 0 11.87-.87l.87.87.87-.87a.615.615 0 11.87.87l-.87.87.87.87z"/></g><defs><clipPath id="clip0_62_394"><path fill="#fff" d="M0 0h21v21H0z"/></clipPath></defs></svg>