<svg width="33" height="33" fill="none" xmlns="http://www.w3.org/2000/svg"><path d="M4.714 12.964v9.429a3.54 3.54 0 003.536 3.536h16.5a3.54 3.54 0 003.536-3.536v-9.429A3.54 3.54 0 0024.75 9.43h-1.5c-.326 0-.64-.138-.862-.376l-.787-.85a3.548 3.548 0 00-2.593-1.132H14.05a3.53 3.53 0 00-2.686 1.237l-.608.71c-.223.262-.55.412-.894.412h-1.61a3.54 3.54 0 00-3.537 3.536v-.002zm7.832-2.412l.61-.712a1.17 1.17 0 01.894-.411h4.958c.326 0 .641.137.863.376l.787.85a3.547 3.547 0 002.592 1.13h1.499c.65 0 1.178.529 1.178 1.178v9.429a1.18 1.18 0 01-1.178 1.178H8.25a1.18 1.18 0 01-1.179-1.178v-9.428c0-.65.53-1.178 1.179-1.178h1.611c1.034 0 2.013-.45 2.684-1.234zM0 8.25V3.536A3.54 3.54 0 013.536 0H8.25a1.179 1.179 0 010 2.357H3.536c-.65 0-1.179.53-1.179 1.179V8.25A1.179 1.179 0 010 8.25zm33-4.714V8.25a1.179 1.179 0 01-2.357 0V3.536c0-.65-.53-1.179-1.179-1.179H24.75a1.179 1.179 0 010-2.357h4.714A3.54 3.54 0 0133 3.536zm0 21.214v4.714A3.54 3.54 0 0129.464 33H24.75a1.179 1.179 0 010-2.357h4.714c.65 0 1.179-.53 1.179-1.179V24.75a1.179 1.179 0 012.357 0zM9.429 31.821A1.18 1.18 0 018.25 33H3.536A3.54 3.54 0 010 29.464V24.75a1.179 1.179 0 012.357 0v4.714c0 .65.53 1.179 1.179 1.179H8.25c.65 0 1.179.528 1.179 1.178zM16.5 21.214a4.72 4.72 0 004.714-4.714 4.72 4.72 0 00-4.714-4.714 4.72 4.72 0 00-4.714 4.714 4.72 4.72 0 004.714 4.714zm0-7.071a2.36 2.36 0 012.357 2.357 2.36 2.36 0 01-2.357 2.357 2.36 2.36 0 01-2.357-2.357 2.36 2.36 0 012.357-2.357z" fill="url(#paint0_linear_110_715)"/><defs><linearGradient id="paint0_linear_110_715" x1="-1.921" y1="28.267" x2="37.819" y2="12.133" gradientUnits="userSpaceOnUse"><stop stop-color="#26644D"/><stop offset=".804" stop-color="#01D55A"/></linearGradient></defs></svg>