<svg width="57" height="57" fill="none" xmlns="http://www.w3.org/2000/svg"><path d="M55.775 25.372H1.225a.668.668 0 01-.668-.668V10.316a5.97 5.97 0 015.962-5.963h12.803a4.544 4.544 0 013.89 2.167l2.255 3.645a1.96 1.96 0 001.678.937H52.93a3.519 3.519 0 013.513 3.513v10.089a.668.668 0 01-.668.668zM1.893 24.036h53.214v-9.42a2.18 2.18 0 00-2.177-2.178H27.14a3.29 3.29 0 01-2.814-1.569l-2.254-3.646a3.218 3.218 0 00-2.754-1.534H6.515a4.631 4.631 0 00-4.622 4.627v13.72z" fill="url(#paint0_linear_112_727)"/><path d="M50.926 25.372H6.074a.668.668 0 01-.668-.668v-5.247a3.186 3.186 0 013.183-3.183H48.41a3.186 3.186 0 013.183 3.183v5.247a.668.668 0 01-.668.668zM6.742 24.036h43.516v-4.58a1.85 1.85 0 00-1.847-1.846H8.589a1.849 1.849 0 00-1.847 1.847v4.579z" fill="url(#paint1_linear_112_727)"/><path d="M49.949 52.647H7.052a6.501 6.501 0 01-6.495-6.495v-5.464a.668.668 0 011.336 0v5.464a5.166 5.166 0 005.159 5.16h42.897a5.166 5.166 0 005.158-5.16v-20.78H1.893v10.106a.668.668 0 01-1.336 0V24.704a.668.668 0 01.668-.668h54.55a.668.668 0 01.668.668v21.448a6.502 6.502 0 01-6.494 6.495z" fill="url(#paint2_linear_112_727)"/><path d="M1.225 39.252a.668.668 0 01-.668-.668v-1.002a.668.668 0 111.336 0v1.002a.668.668 0 01-.668.668z" fill="url(#paint3_linear_112_727)"/><path d="M21.996 32.833h-4.128a.668.668 0 01-.668-.668V31.01c0-1.127.807-2.046 1.8-2.046h1.865c.992 0 1.8.919 1.8 2.046v1.155a.668.668 0 01-.669.668zm-3.46-1.336h2.792v-.487c0-.418-.244-.71-.463-.71H19c-.222 0-.463.292-.463.71v.487z" fill="url(#paint4_linear_112_727)"/><path d="M38.348 48.786h-6.966a.668.668 0 01-.27-1.279 6.467 6.467 0 10-5.225 0 .668.668 0 01-.27 1.28H18.65a3.735 3.735 0 01-3.733-3.733V35.24a3.735 3.735 0 013.733-3.734h19.697a3.735 3.735 0 013.734 3.734v9.814a3.736 3.736 0 01-3.734 3.732zM33.66 47.45h4.688a2.4 2.4 0 002.398-2.396V35.24a2.399 2.399 0 00-2.398-2.398H18.651a2.398 2.398 0 00-2.397 2.398v9.814a2.398 2.398 0 002.395 2.396h4.693a7.792 7.792 0 1110.316 0h.002z" fill="url(#paint5_linear_112_727)"/><path d="M28.5 49.392a7.804 7.804 0 117.803-7.804 7.813 7.813 0 01-7.803 7.804zm0-14.272a6.469 6.469 0 106.467 6.468A6.475 6.475 0 0028.5 35.12z" fill="url(#paint6_linear_112_727)"/><path d="M28.5 46.144a4.565 4.565 0 01-4.553-4.564 4.558 4.558 0 014.553-4.552 4.56 4.56 0 010 9.116zm-3.222-4.564a3.229 3.229 0 003.219 3.228 3.223 3.223 0 000-6.444 3.229 3.229 0 00-3.222 3.22l.003-.004z" fill="url(#paint7_linear_112_727)"/><path d="M35.491 32.842H23.735a.667.667 0 01-.609-.94l1.425-3.18a2.42 2.42 0 012.207-1.429h5.696a2.422 2.422 0 012.202 1.419l1.448 3.19a.668.668 0 01-.613.94zm-10.724-1.336h9.686l-1.017-2.246a1.086 1.086 0 00-.985-.634h-5.693a1.08 1.08 0 00-.987.639l-1.004 2.24z" fill="url(#paint8_linear_112_727)"/><defs><linearGradient id="paint0_linear_112_727" x1="-2.697" y1="22.357" x2="33.51" y2="-16.726" gradientUnits="userSpaceOnUse"><stop stop-color="#26644D"/><stop offset=".804" stop-color="#01D55A"/></linearGradient><linearGradient id="paint1_linear_112_727" x1="2.717" y1="24.067" x2="15.063" y2="-1.378" gradientUnits="userSpaceOnUse"><stop stop-color="#26644D"/><stop offset=".804" stop-color="#01D55A"/></linearGradient><linearGradient id="paint2_linear_112_727" x1="-2.697" y1="48.543" x2="45.432" y2="10.377" gradientUnits="userSpaceOnUse"><stop stop-color="#26644D"/><stop offset=".804" stop-color="#01D55A"/></linearGradient><linearGradient id="paint3_linear_112_727" x1=".479" y1="38.917" x2="2.257" y2="38.504" gradientUnits="userSpaceOnUse"><stop stop-color="#26644D"/><stop offset=".804" stop-color="#01D55A"/></linearGradient><linearGradient id="paint4_linear_112_727" x1="16.882" y1="32.278" x2="22.65" y2="28.971" gradientUnits="userSpaceOnUse"><stop stop-color="#26644D"/><stop offset=".804" stop-color="#01D55A"/></linearGradient><linearGradient id="paint5_linear_112_727" x1="13.337" y1="46.308" x2="40.413" y2="29.028" gradientUnits="userSpaceOnUse"><stop stop-color="#26644D"/><stop offset=".804" stop-color="#01D55A"/></linearGradient><linearGradient id="paint6_linear_112_727" x1="19.786" y1="47.153" x2="38.583" y2="39.522" gradientUnits="userSpaceOnUse"><stop stop-color="#26644D"/><stop offset=".804" stop-color="#01D55A"/></linearGradient><linearGradient id="paint7_linear_112_727" x1="23.421" y1="44.837" x2="34.334" y2="40.443" gradientUnits="userSpaceOnUse"><stop stop-color="#26644D"/><stop offset=".804" stop-color="#01D55A"/></linearGradient><linearGradient id="paint8_linear_112_727" x1="22.306" y1="32.046" x2="31.883" y2="22.871" gradientUnits="userSpaceOnUse"><stop stop-color="#26644D"/><stop offset=".804" stop-color="#01D55A"/></linearGradient></defs></svg>