<svg width="57" height="57" fill="none" xmlns="http://www.w3.org/2000/svg"><path d="M9.355 6.123h8.259" stroke="url(#paint0_linear_115_1589)" stroke-width="1.5" stroke-miterlimit="10" stroke-linecap="round" stroke-linejoin="round"/><path d="M9.355 11.145h8.259" stroke="url(#paint1_linear_115_1589)" stroke-width="1.5" stroke-miterlimit="10" stroke-linecap="round" stroke-linejoin="round"/><mask id="a" style="mask-type:luminance" maskUnits="userSpaceOnUse" x="0" y="0" width="57" height="57"><path d="M56.25 56.25V.75H.75v55.5h55.5z" fill="#fff" stroke="#fff" stroke-width="1.5"/></mask><g mask="url(#a)" stroke-width="1.5" stroke-miterlimit="10" stroke-linecap="round" stroke-linejoin="round"><path d="M50.287 20.74l1.723 1.226c.501.357.618 1.053.261 1.555l-3.6 5.056" stroke="url(#paint2_linear_115_1589)"/><path d="M8.806 50.771s4.92-7.047 7.09-5.54c1.408.978-3.39 7.505-.554 5.401 6.57-4.872 5.001.056 10.82.056" stroke="url(#paint3_linear_115_1589)"/><path d="M30.734 46.981l-1.868 1.524c-.755.616-1.84-.157-1.506-1.072l.83-2.264a20.244 20.244 0 012.518-4.78l16.693-23.442a1.144 1.144 0 011.595-.268l1.856 1.32c.514.367.635 1.081.268 1.596L34.427 43.038a20.242 20.242 0 01-3.693 3.943z" stroke="url(#paint4_linear_115_1589)"/><path d="M37.548 38.654l-3.719-2.648" stroke="url(#paint5_linear_115_1589)"/><path d="M51.147 18.309l1.524-2.14a.781.781 0 00-.183-1.09l-1.267-.902a.781.781 0 00-1.09.183l-1.524 2.14" stroke="url(#paint6_linear_115_1589)"/><path d="M34.275 1.089v6.326a3.718 3.718 0 003.718 3.718h6.327" stroke="url(#paint7_linear_115_1589)"/><path d="M44.573 16.404V12.3a2.82 2.82 0 00-.825-1.992L35.1 1.66a2.816 2.816 0 00-1.992-.825H7.902a3.718 3.718 0 00-3.718 3.718v47.894a3.718 3.718 0 003.718 3.718h32.953a3.718 3.718 0 003.718-3.718V33.323" stroke="url(#paint8_linear_115_1589)"/></g><defs><linearGradient id="paint0_linear_115_1589" x1="8.874" y1="5.266" x2="9.821" y2="8.439" gradientUnits="userSpaceOnUse"><stop stop-color="#26644D"/><stop offset=".804" stop-color="#01D55A"/></linearGradient><linearGradient id="paint1_linear_115_1589" x1="8.874" y1="10.289" x2="9.821" y2="13.462" gradientUnits="userSpaceOnUse"><stop stop-color="#26644D"/><stop offset=".804" stop-color="#01D55A"/></linearGradient><linearGradient id="paint2_linear_115_1589" x1="48.449" y1="21.864" x2="53.59" y2="22.877" gradientUnits="userSpaceOnUse"><stop stop-color="#26644D"/><stop offset=".804" stop-color="#01D55A"/></linearGradient><linearGradient id="paint3_linear_115_1589" x1="7.796" y1="45.884" x2="18.083" y2="57.91" gradientUnits="userSpaceOnUse"><stop stop-color="#26644D"/><stop offset=".804" stop-color="#01D55A"/></linearGradient><linearGradient id="paint4_linear_115_1589" x1="25.899" y1="21.093" x2="56.787" y2="30.436" gradientUnits="userSpaceOnUse"><stop stop-color="#26644D"/><stop offset=".804" stop-color="#01D55A"/></linearGradient><linearGradient id="paint5_linear_115_1589" x1="33.613" y1="36.386" x2="37.55" y2="38.631" gradientUnits="userSpaceOnUse"><stop stop-color="#26644D"/><stop offset=".804" stop-color="#01D55A"/></linearGradient><linearGradient id="paint6_linear_115_1589" x1="48.362" y1="14.645" x2="53.454" y2="16.679" gradientUnits="userSpaceOnUse"><stop stop-color="#26644D"/><stop offset=".804" stop-color="#01D55A"/></linearGradient><linearGradient id="paint7_linear_115_1589" x1="33.69" y1="2.529" x2="45.787" y2="7.44" gradientUnits="userSpaceOnUse"><stop stop-color="#26644D"/><stop offset=".804" stop-color="#01D55A"/></linearGradient><linearGradient id="paint8_linear_115_1589" x1="1.832" y1="8.771" x2="53.914" y2="24.206" gradientUnits="userSpaceOnUse"><stop stop-color="#26644D"/><stop offset=".804" stop-color="#01D55A"/></linearGradient></defs></svg>