<svg width="57" height="57" fill="none" xmlns="http://www.w3.org/2000/svg"><path d="M38.25 52.483c.83 0 1.512-.673 1.512-1.511v-6.78c0-1.33-.898-2.487-2.185-2.806l-5.925-1.477-7.367-9.552a2.88 2.88 0 00-2.28-1.123H7.963a2.91 2.91 0 00-2.583 1.598L.95 39.719a2.859 2.859 0 00-.302 1.295v9.958c0 .829.673 1.511 1.511 1.511H5.57c.311 1.952 1.995 3.455 4.034 3.455 2.038 0 3.713-1.503 4.033-3.455H26.79c.31 1.952 1.995 3.455 4.033 3.455 2.038 0 3.714-1.503 4.033-3.455h3.394zm.216-4.758h-.768a.984.984 0 110-1.97h.768v1.97zM1.943 44.296h1.78c.042 0 .077.035.077.078v3.1a.077.077 0 01-.078.078H1.943v-3.256zm0 6.684v-2.14h1.78a1.37 1.37 0 001.372-1.373v-3.101a1.37 1.37 0 00-1.373-1.373H1.943v-1.978c0-.25.06-.492.164-.708l4.43-8.887a1.61 1.61 0 011.426-.88h14.034c.492 0 .95.224 1.26.612l7.506 9.734a.66.66 0 00.354.233l6.14 1.537a1.598 1.598 0 011.21 1.546v.268h-.77a2.283 2.283 0 00-2.28 2.28c0 1.252 1.02 2.28 2.28 2.28h.77v1.96a.215.215 0 01-.217.216h-3.41a4.088 4.088 0 00-4.034-3.446c-2.038 0-3.714 1.494-4.033 3.446H13.628a4.088 4.088 0 00-4.033-3.446c-2.038 0-3.714 1.494-4.033 3.446H2.159c-.12-.017-.216-.112-.216-.224zm7.652 3.662a2.798 2.798 0 11-.001-5.595 2.798 2.798 0 01.001 5.595zm21.21 0a2.798 2.798 0 110-5.595 2.798 2.798 0 010 5.595z" fill="url(#paint0_linear_96_574)"/><path d="M25.944 41.601c.544 0 1.027-.302 1.27-.794a1.401 1.401 0 00-.148-1.486L22.23 33.06a1.424 1.424 0 00-1.123-.553H9.077a1.41 1.41 0 00-1.27.786L4.69 39.554c-.216.44-.2.96.069 1.374.259.423.708.673 1.2.673h19.985zm-4.742-7.755l4.837 6.261c.008.017.043.06.008.13-.026.043-.06.069-.112.069H15.83v-6.503h5.277c.043 0 .078.008.095.043zM5.847 40.133l3.126-6.261c.017-.043.06-.07.112-.07h5.467v6.504H5.95a.113.113 0 01-.103-.06c-.026-.044-.017-.078 0-.113z" fill="url(#paint1_linear_96_574)"/><path d="M12.635 43.38h-.959a.652.652 0 00-.647.648c0 .354.293.648.647.648h.959a.652.652 0 00.648-.648.652.652 0 00-.648-.648z" fill="url(#paint2_linear_96_574)"/><path d="M18.015 43.38h-.958a.652.652 0 00-.648.648c0 .354.294.648.648.648h.959a.647.647 0 100-1.295z" fill="url(#paint3_linear_96_574)"/><path d="M53.658 1.062H26.557a2.76 2.76 0 00-1.874.752l-9.319 9.085a2.719 2.719 0 00-.82 1.943v13.585c0 .354.293.648.647.648a.653.653 0 00.648-.648V13.585h9.595a1.937 1.937 0 001.935-1.935V2.358h26.289c.777 0 1.399.63 1.399 1.399v49.477c0 .778-.63 1.4-1.4 1.4H35.946a.652.652 0 00-.648.647c0 .354.294.648.648.648h17.713a2.698 2.698 0 002.694-2.695V3.758a2.698 2.698 0 00-2.694-2.695zM25.425 12.29h-9.482c.069-.172.181-.328.32-.466l9.318-9.068a1.46 1.46 0 01.492-.302v9.197c0 .354-.293.64-.648.64z" fill="url(#paint4_linear_96_574)"/><path d="M49.14 15.191a1.33 1.33 0 001.33-1.33V8.775a1.33 1.33 0 00-1.33-1.33H33.622a1.33 1.33 0 00-1.33 1.33v5.086c0 .734.596 1.33 1.33 1.33h15.52zM33.622 8.75h15.52c.017 0 .034.017.034.034l-.034 5.122-15.554-.035.034-5.121z" fill="url(#paint5_linear_96_574)"/><path d="M20.814 20.615c0 .354.293.648.647.648h28.362a.652.652 0 00.648-.648.652.652 0 00-.648-.648H21.461a.647.647 0 00-.647.648z" fill="url(#paint6_linear_96_574)"/><path d="M21.461 26.134h28.362a.652.652 0 00.648-.648.652.652 0 00-.648-.648H21.461a.653.653 0 00-.647.648c0 .354.293.648.647.648z" fill="url(#paint7_linear_96_574)"/><path d="M50.47 30.357a.652.652 0 00-.647-.648H34.01a.652.652 0 00-.648.648c0 .354.294.648.648.648h15.813a.647.647 0 00.648-.648z" fill="url(#paint8_linear_96_574)"/><defs><linearGradient id="paint0_linear_96_574" x1="-1.629" y1="52.108" x2="38.904" y2="28.004" gradientUnits="userSpaceOnUse"><stop stop-color="#26644D"/><stop offset=".804" stop-color="#01D55A"/></linearGradient><linearGradient id="paint1_linear_96_574" x1="3.213" y1="40.297" x2="18.921" y2="24.295" gradientUnits="userSpaceOnUse"><stop stop-color="#26644D"/><stop offset=".804" stop-color="#01D55A"/></linearGradient><linearGradient id="paint2_linear_96_574" x1="10.897" y1="44.49" x2="13.007" y2="43" gradientUnits="userSpaceOnUse"><stop stop-color="#26644D"/><stop offset=".804" stop-color="#01D55A"/></linearGradient><linearGradient id="paint3_linear_96_574" x1="16.278" y1="44.49" x2="18.387" y2="43" gradientUnits="userSpaceOnUse"><stop stop-color="#26644D"/><stop offset=".804" stop-color="#01D55A"/></linearGradient><linearGradient id="paint4_linear_96_574" x1="12.11" y1="48.059" x2="65.634" y2="31.502" gradientUnits="userSpaceOnUse"><stop stop-color="#26644D"/><stop offset=".804" stop-color="#01D55A"/></linearGradient><linearGradient id="paint5_linear_96_574" x1="31.233" y1="14.08" x2="44.601" y2="1.345" gradientUnits="userSpaceOnUse"><stop stop-color="#26644D"/><stop offset=".804" stop-color="#01D55A"/></linearGradient><linearGradient id="paint6_linear_96_574" x1="19.087" y1="21.077" x2="19.563" y2="16.652" gradientUnits="userSpaceOnUse"><stop stop-color="#26644D"/><stop offset=".804" stop-color="#01D55A"/></linearGradient><linearGradient id="paint7_linear_96_574" x1="19.087" y1="25.948" x2="19.563" y2="21.523" gradientUnits="userSpaceOnUse"><stop stop-color="#26644D"/><stop offset=".804" stop-color="#01D55A"/></linearGradient><linearGradient id="paint8_linear_96_574" x1="32.366" y1="30.819" x2="33.173" y2="26.493" gradientUnits="userSpaceOnUse"><stop stop-color="#26644D"/><stop offset=".804" stop-color="#01D55A"/></linearGradient></defs></svg>