<svg width="57" height="57" fill="none" xmlns="http://www.w3.org/2000/svg"><path fill-rule="evenodd" clip-rule="evenodd" d="M48.245 40.511c.482.125.887.43 1.14.86.254.431.325.934.2 1.415l-2.782 10.752c-.125.482-.43.887-.86 1.14a1.86 1.86 0 01-1.415.2l-2.07-.536a1.87 1.87 0 01-1.34-2.275l.212-.819-.844-.226-7.506 4.334a5.41 5.41 0 01-2.725.752 5.43 5.43 0 01-1.557-.232l-13.543-4.043c-1.384-.413-2.258-2.145-1.834-3.633.205-.717 1.219-2.962 5.686-1.747l7.405 2.015c.115.031.229.056.342.076a3.49 3.49 0 01-.065-.107c-.735-1.274-.308-2.922.973-3.753a.867.867 0 01.105-.058c1.729-.814 3.358-1.95 4.667-2.862l.004-.003c.459-.32.892-.622 1.268-.865 1.597-1.036 3.335-.766 4.824-.365l5.21 1.403.16-.619c.125-.481.43-.886.861-1.14a1.86 1.86 0 011.415-.2l2.07.536zm-8.33 8.784a.889.889 0 01.676-.089l1.185.318 1.518-5.866-5.227-1.407c-1.595-.43-2.578-.39-3.392.139-.352.228-.755.509-1.222.834-1.35.94-3.024 2.109-4.865 2.984-.46.325-.614.892-.356 1.338.103.178.414.715 1.333.356.875-.44 1.694-.93 2.56-1.449.416-.25.847-.508 1.294-.765a.89.89 0 11.89 1.542c-.433.25-.858.505-1.269.751l-.002.002c-.907.543-1.764 1.057-2.712 1.53l-.793.359c-1.209.54-2.382.643-3.588.315l-7.406-2.015c-1.922-.523-3.265-.325-3.505.517-.17.593.212 1.313.63 1.438l13.543 4.043c.99.296 1.96.176 2.882-.356l7.826-4.519zm5.163 3.797L47.86 42.34a.082.082 0 00-.01-.065.083.083 0 00-.05-.04l-2.07-.535a.086.086 0 00-.065.01.082.082 0 00-.04.051l-2.782 10.752a.09.09 0 00.061.105l2.07.535a.089.089 0 00.105-.061zm1.426-9.16a.664.664 0 10-.155-1.319.664.664 0 00.155 1.32zm-25.801 1.6a8.82 8.82 0 01-.23-.003c-.076.002-.153.002-.23.002-4.731 0-9.031-2.317-11.265-6.086-2.034-3.432-1.992-7.524.116-11.225.631-1.107 1.42-2.277 2.395-3.553a6.935 6.935 0 01-.168-.09.876.876 0 00-.434-.108H8.245a.89.89 0 01-.89-.89V9.902a.89.89 0 01.89-.891h2.642c.33 0 .592-.15.758-.436l1.265-2.171c.1-.17.205-.333.315-.49a2.822 2.822 0 01.803-2.354 2.844 2.844 0 013.526-.379c.037.024.055.026.096.01.041-.018.053-.032.062-.075A2.844 2.844 0 0120.473.892c1.319 0 2.48.935 2.762 2.225.01.043.02.057.062.074.04.017.058.015.096-.008a2.844 2.844 0 013.526.378c.532.533.825 1.242.825 1.998 0 .757-.293 1.467-.825 1.999l-.183.182h.715a3.034 3.034 0 012.588 4.607 3.091 3.091 0 011.603 2.695 3.08 3.08 0 01-1.391 2.564 2.856 2.856 0 01-.636 3.568 2.621 2.621 0 01-.247 3.376c1.017 1.322 1.834 2.529 2.484 3.67 2.108 3.701 2.15 7.793.116 11.225-2.233 3.77-6.534 6.086-11.265 6.086zm-4.111-40.85a1.052 1.052 0 00-1.304.139 1.046 1.046 0 00-.264 1.031c0 .003.002.006.003.008a1.038 1.038 0 00.261.438l1.442 1.443h7.487l1.442-1.443c.196-.195.304-.458.304-.738 0-.28-.108-.543-.304-.739a1.052 1.052 0 00-1.304-.14 1.862 1.862 0 01-1.74.156 1.862 1.862 0 01-1.12-1.34 1.052 1.052 0 00-1.022-.824c-.487 0-.916.347-1.02.824a1.863 1.863 0 01-1.12 1.34 1.86 1.86 0 01-1.741-.156zM14.2 7.73l-1.015 1.743a2.635 2.635 0 01-1.407 1.17v12.195c.144.05.284.11.416.185a4.013 4.013 0 002.071.543h13.22a.85.85 0 00.021-1.698h-4.198a.89.89 0 010-1.781l4.44-.002c.6 0 1.087-.487 1.087-1.087a1.1 1.1 0 00-.463-.887h-3.878a.89.89 0 010-1.78h4.107a1.295 1.295 0 001.26-1.289c0-.575-.39-1.085-.939-1.24H24.91a.89.89 0 010-1.782h2.541a1.25 1.25 0 000-2.499H16.04a.89.89 0 01-.888-.84L14.2 7.73zm-4.203 3.063h-.86v11.895h.86V10.793zm.645 18.308c-1.808 3.176-1.855 6.527-.131 9.436 1.946 3.285 5.76 5.284 9.948 5.212h.03l.214.001c4.105 0 7.82-1.984 9.733-5.212 1.724-2.91 1.677-6.26-.131-9.436-.658-1.154-1.506-2.39-2.583-3.766a2.666 2.666 0 01-.238.011h-1.531.109s-.583 0-1.235-.003h-.006l.726.003H22.46h.017c1.223 0 2.132 0 2.105-.003h-.28c-.094.002-.965.002-1.701.002h.024-.305.033-1.344.285-.297.012l1.44.001h.012-1.767.178-.717.03H18.5h.476-.073l-.36-.001.048-.001h-.389a142.101 142.101 0 01.53-.004l-.934.003h.402-.792l-.082.001h.024-1.124c.086 0-.043-.002-.147-.002a21.482 21.482 0 00-.465.004h.863-2.212c-.342 0-.67-.025-.989-.076-1.101 1.4-1.966 2.658-2.634 3.83zm5.971-3.754h-.136H18.5h-.199.226l.015-.001h-.311l-.03-.002h.002-.003l-.11.002-.204-.002h-.477l.055.001h-.461.323m-.323 0H17a109.787 109.787 0 01.326 0m-.323 0l-.32.002h-1.069 1.068l.355-.001h-.425m1.173 0h-.322.322zm0 0zm.304 0h.211-.21zm-1.91 0h.046-.072.026zm1.442-.002h.171-.17zm.022-.007zm2.338.01h.026-.026zm.185-.007l.639.006-.113-.004a8.905 8.905 0 00-.283-.006l-.243.004zm-.109-.001zm2.148.005h.482l.252-.003-.654.002h-.08zm.147.002h.248l-.124.001h-.029l-.095-.001zm3.963 0h.267-.267zm-2.07-.004l.296.001-.296-.001zM25 30.014V29h-8v1.014h8zm-8 1.972h3.13V39h1.74v-7.014H25V30.97h-8v1.015z" fill="url(#paint0_linear_71_776)"/><defs><linearGradient id="paint0_linear_71_776" x1="4.893" y1="48.188" x2="58.985" y2="31.369" gradientUnits="userSpaceOnUse"><stop stop-color="#26644D"/><stop offset=".804" stop-color="#01D55A"/></linearGradient></defs></svg>