<svg width="19" height="19" fill="none" xmlns="http://www.w3.org/2000/svg"><path d="M17.417 13.395v2.375a1.582 1.582 0 01-1.726 1.583 15.667 15.667 0 01-6.832-2.43 15.438 15.438 0 01-4.75-4.75 15.667 15.667 0 01-2.43-6.864 1.583 1.583 0 011.575-1.726h2.375a1.583 1.583 0 011.583 1.362c.1.76.286 1.506.554 2.225a1.583 1.583 0 01-.356 1.67L6.405 7.845a12.667 12.667 0 004.75 4.75l1.005-1.005a1.583 1.583 0 011.67-.356c.719.268 1.465.454 2.225.554a1.584 1.584 0 011.362 1.607z" stroke="#009846" stroke-width="1.3" stroke-linecap="round" stroke-linejoin="round"/></svg>