<svg width="57" height="47" fill="none" xmlns="http://www.w3.org/2000/svg"><path d="M20.654 21.525h15.692a2.196 2.196 0 001.662-.65 2.231 2.231 0 00.645-1.675V9.433a2.243 2.243 0 00-.645-1.676 2.21 2.21 0 00-1.662-.65h-2.659l-1.592-3.205a.928.928 0 00-.826-.516h-5.538a.918.918 0 00-.826.516l-1.592 3.205h-2.659a2.195 2.195 0 00-1.662.65 2.23 2.23 0 00-.645 1.676V19.2a2.243 2.243 0 00.645 1.675 2.21 2.21 0 001.662.65zm-.461-12.092c0-.345.12-.466.461-.466h3.231a.918.918 0 00.826-.516l1.592-3.204h4.394l1.592 3.204a.929.929 0 00.826.516h3.23c.342 0 .462.121.462.466V19.2c0 .344-.12.465-.461.465H20.655c-.342 0-.462-.121-.462-.465V9.433z" fill="url(#paint0_linear_118_2159)"/><path d="M28.5 17.805a4.13 4.13 0 002.308-.706 4.179 4.179 0 001.53-1.879 4.216 4.216 0 00-.9-4.561 4.124 4.124 0 00-4.527-.907 4.16 4.16 0 00-1.864 1.541 4.21 4.21 0 00.516 5.285 4.137 4.137 0 002.937 1.227zm0-6.512c.457 0 .903.136 1.282.392a2.341 2.341 0 01.35 3.578 2.301 2.301 0 01-2.515.504 2.311 2.311 0 01-1.035-.856 2.338 2.338 0 01.287-2.937 2.298 2.298 0 011.631-.681z" fill="url(#paint1_linear_118_2159)"/><path d="M54.806 35.302c-.596-1.86-2.548-3.721-5.23-4.902-3.53-1.563-9.797-1.647-13.65-1.782-1.062-.511-6.37-3.079-7.186-3.446-3.23-1.447-7.786-1.084-11.266-.465-1.8.288-10.753 2.097-12.973 2.865-1.896.67-2.256 1.497-2.833 3.153-.702 2.014-1.07 3.177-.277 6.047.997 3.646 2.649 3.823 5.418 3.823h.074a4.98 4.98 0 001.712 2.015 4.913 4.913 0 005.068.27 4.954 4.954 0 001.915-1.82h25.54a4.95 4.95 0 001.796 1.748 4.904 4.904 0 004.833 0 4.95 4.95 0 001.797-1.748h3.416c1.135 0 2.182-1.093 2.178-1.982a4.85 4.85 0 00-.277-1.348 4.837 4.837 0 00-.055-2.428zM11.35 41.585a3.084 3.084 0 01-1.723-.526 3.12 3.12 0 01-1.142-1.403 3.148 3.148 0 01.672-3.406 3.079 3.079 0 013.38-.678 3.107 3.107 0 011.392 1.152 3.142 3.142 0 01-.386 3.946 3.1 3.1 0 01-2.193.915zm33.98 0a3.084 3.084 0 01-1.722-.526 3.12 3.12 0 01-1.142-1.403 3.147 3.147 0 01.672-3.406 3.079 3.079 0 013.38-.678 3.107 3.107 0 011.392 1.152 3.143 3.143 0 01-.388 3.945 3.094 3.094 0 01-2.191.916zm7.63-2.386h-2.742a5.019 5.019 0 00-1.133-4.001 4.946 4.946 0 00-1.687-1.283 4.911 4.911 0 00-5.817 1.283 5.019 5.019 0 00-1.133 4.002h-24.21a5.02 5.02 0 00-1.063-3.908 4.95 4.95 0 00-1.604-1.294 4.91 4.91 0 00-5.733.947 5.016 5.016 0 00-1.421 3.79c-2.123 0-2.617-.136-3.23-2.438-.615-2.302-.407-3.088.244-4.94.503-1.446.595-1.618 1.703-2.013 2.04-.721 10.762-2.493 12.668-2.823 3.046-.526 7.384-.93 10.204.353.867.386 7.245 3.475 7.31 3.507a.918.918 0 00.37.088c3.774.126 10 .233 13.166 1.633 2.137.93 3.789 2.423 4.209 3.763.3.93-.18 1.688 0 2.325.092.263.164.532.217.805a.692.692 0 01-.319.204z" fill="url(#paint2_linear_118_2159)"/><path d="M11.886 20.204l-2.419 1.6a.926.926 0 00-.398.592.938.938 0 00.135.701.923.923 0 001.279.26l4.241-2.79a.93.93 0 00.263-1.288l-2.769-4.27a.922.922 0 00-1.27-.252.936.936 0 00-.271 1.275l1.541 2.358c-5.847-1.46-9.562-3.65-9.562-5.702 0-2.535 4.615-5.53 14.856-6.511a.922.922 0 00.626-.335.937.937 0 00-.442-1.489.92.92 0 00-.36-.037C6.99 5.312.81 8.442.81 12.688c0 3.13 3.927 5.786 11.076 7.516z" fill="url(#paint3_linear_118_2159)"/><path d="M41.575 21.06c9.152-1.581 14.616-4.707 14.616-8.372 0-3.102-4.01-5.804-11.076-7.52l2.469-1.638a.926.926 0 00.407-.59.937.937 0 00-.387-.967.92.92 0 00-1.035.004l-4.223 2.805a.936.936 0 00-.263 1.288l2.769 4.274a.923.923 0 001.27.253.93.93 0 00.271-1.276l-1.495-2.298c5.796 1.452 9.447 3.605 9.447 5.665S50.251 17.674 41.27 19.2a.931.931 0 00-.608.38.948.948 0 00.548 1.468.93.93 0 00.365.012z" fill="url(#paint4_linear_118_2159)"/><defs><linearGradient id="paint0_linear_118_2159" x1="17.162" y1="18.925" x2="40.775" y2="8.193" gradientUnits="userSpaceOnUse"><stop stop-color="#26644D"/><stop offset=".804" stop-color="#01D55A"/></linearGradient><linearGradient id="paint1_linear_118_2159" x1="23.863" y1="16.604" x2="33.889" y2="12.565" gradientUnits="userSpaceOnUse"><stop stop-color="#26644D"/><stop offset=".804" stop-color="#01D55A"/></linearGradient><linearGradient id="paint2_linear_118_2159" x1="-2.212" y1="40.691" x2="30.836" y2="3.006" gradientUnits="userSpaceOnUse"><stop stop-color="#26644D"/><stop offset=".804" stop-color="#01D55A"/></linearGradient><linearGradient id="paint3_linear_118_2159" x1="-.212" y1="20.759" x2="21.419" y2="12.736" gradientUnits="userSpaceOnUse"><stop stop-color="#26644D"/><stop offset=".804" stop-color="#01D55A"/></linearGradient><linearGradient id="paint4_linear_118_2159" x1="39.573" y1="18.311" x2="59.425" y2="11.739" gradientUnits="userSpaceOnUse"><stop stop-color="#26644D"/><stop offset=".804" stop-color="#01D55A"/></linearGradient></defs></svg>