<svg width="46" height="45" fill="none" xmlns="http://www.w3.org/2000/svg"><path fill-rule="evenodd" clip-rule="evenodd" d="M23.92 7.77v2.02a16.435 16.435 0 00-6.284 2.587l-.57-.69.632-.524a.823.823 0 00.11-1.158l-1.603-1.938a.822.822 0 00-1.159-.109l-3.505 2.9a.822.822 0 00-.109 1.159l1.604 1.938a.823.823 0 001.158.108l.633-.523.56.676c-.72.703-1.376 1.47-1.96 2.294H9.582a.815.815 0 100 1.63h4.173a.824.824 0 00.794-.357c2.672-3.991 7.222-6.621 12.38-6.621 8.217 0 14.889 6.671 14.889 14.887 0 8.217-6.672 14.889-14.89 14.889a14.844 14.844 0 01-10.65-4.492.82.82 0 00-.714-.238.803.803 0 00-.06-.003h-4.285a.816.816 0 000 1.63h4.122c.6.59 1.241 1.133 1.925 1.627H7.219a.815.815 0 100 1.63h12.845a16.457 16.457 0 006.865 1.49c9.125 0 16.533-7.408 16.533-16.533a16.48 16.48 0 00-4.93-11.772l.616-.744.64.53c.35.29.868.24 1.159-.108l1.603-1.938a.822.822 0 00-.109-1.158l-3.505-2.9a.822.822 0 00-1.158.108l-1.604 1.938c-.29.35-.24.868.11 1.158l.64.53-.615.743a16.45 16.45 0 00-6.448-2.66V7.77h.938a.687.687 0 00.686-.687V4.29a.687.687 0 00-.686-.686H22.98a.685.685 0 00-.685.686v2.793c0 .38.306.687.685.687h.94zm5.584 30.01a12.09 12.09 0 01-2.504.282.822.822 0 00.012 1.644 13.69 13.69 0 002.844-.319.823.823 0 00-.352-1.607zm-5.677-.127c-.588-.16-1.16-.36-1.713-.602a.822.822 0 10-.66 1.505c.627.277 1.278.505 1.945.686a.824.824 0 00.428-1.589zM38.94 26.049c0 1.938-.46 3.77-1.276 5.391l-.01.019a12.058 12.058 0 01-4.826 5.054.823.823 0 10.809 1.431 13.704 13.704 0 002.906-2.2l.024-.023a13.671 13.671 0 002.554-3.518 13.583 13.583 0 001.465-6.154c0-7.537-6.12-13.654-13.656-13.654a.822.822 0 000 1.644c6.628 0 12.01 5.382 12.01 12.01zM5.93 32.646h5.794a.815.815 0 100-1.63H5.928a.816.816 0 000 1.63zm20.178-8.735a2.301 2.301 0 00-1.319 1.323h-5.03a.816.816 0 000 1.63h5.03a2.291 2.291 0 102.965-2.953v-6.586a.823.823 0 00-1.646 0v6.586zm-23.51 2.953h8.622a.816.816 0 000-1.63H2.597a.816.816 0 000 1.63zm24.259-1.472a.663.663 0 00-.574.523.833.833 0 010 .268.66.66 0 10.72-.79h-.146zM5.928 22.136h5.795a.815.815 0 100-1.63H5.928a.816.816 0 000 1.63zm32.16-9.48l-.105-.086-.574.695.104.086.575-.695zm-22.085-.09l-.114.095.524.634c.04-.031.078-.063.116-.094l-.526-.635zm24.755-.964l-.555.67-2.237-1.853.555-.669 2.237 1.852zm-27.534 0l2.237-1.852.555.67-2.238 1.851-.554-.669zM25.3 9.596a16.589 16.589 0 013.18-.007V7.774H25.3v1.822zm3.948-3.2h.866v-1.42h-6.447v1.42l.944-.004h4.559c.027 0 .053.002.078.005z" fill="url(#paint0_linear_62_530)"/><defs><linearGradient id="paint0_linear_62_530" x1="-.644" y1="36.991" x2="48.551" y2="15.636" gradientUnits="userSpaceOnUse"><stop stop-color="#26644D"/><stop offset=".804" stop-color="#01D55A"/></linearGradient></defs></svg>