<svg width="15" height="15" fill="none" xmlns="http://www.w3.org/2000/svg"><g clip-path="url(#clip0_62_582)"><path d="M14.884 13.022L8.322 1.084A.925.925 0 007.5.6a.925.925 0 00-.821.484L.115 13.022a.92.92 0 00.015.918c.17.288.472.46.807.46h13.126a.928.928 0 00.806-.46.92.92 0 00.015-.918zm-7.532-7.61a.897.897 0 011.036 1.025l-.592 3.515a.3.3 0 01-.592 0l-.591-3.515a.89.89 0 01.739-1.024zM7.5 12.6a.901.901 0 010-1.8.901.901 0 010 1.8z" fill="#E11F1F"/></g><defs><clipPath id="clip0_62_582"><path fill="#fff" d="M0 0h15v15H0z"/></clipPath></defs></svg>