<svg width="678" height="114" viewBox="0 0 678 114" fill="none" xmlns="http://www.w3.org/2000/svg">
<path fill-rule="evenodd" clip-rule="evenodd" d="M593.465 59.8696C589.234 59.8696 587.285 63.1684 586.391 66.8818L597.191 67.0949C597.746 63.5818 598.125 59.8696 593.465 59.8696ZM588.486 95.0816C576.774 95.0816 570.161 88.2444 572.045 76.4058L572.921 70.8975C574.851 58.7656 582.06 50.2496 594.899 50.2764C605.929 50.3002 610.823 58.0176 609.176 68.3535L607.983 75.8362H584.486C583.235 82.1522 584.821 85.4857 590.016 85.4857L588.486 95.0816ZM544.17 56.3455C545.77 54.3696 547.609 52.8578 549.685 51.7882C551.762 50.719 553.991 50.1778 556.343 50.1778C560.109 50.1778 562.929 51.5244 564.791 54.2056C566.654 56.8872 567.214 61.0991 566.339 66.819L562.027 95.0256H549.564L553.877 66.7816C554.279 64.1522 554.142 62.3255 553.488 61.3043C552.833 60.2857 551.725 59.7698 550.151 59.7698C548.841 59.7698 547.633 60.0204 546.501 60.5125C545.368 61.0042 544.373 61.683 543.517 62.5391L538.574 95.0256H526.137L532.817 50.9204H544.51L544.17 56.3455ZM524.198 50.9352H511.698L513.153 41.3004H525.666L524.198 50.9352ZM517.601 95.0256H505.101L510.337 59.9845H522.85L517.601 95.0256ZM306.294 64.8616L308.413 50.9057H314.693C317.217 50.9057 319.069 51.5618 320.235 52.8604C321.402 54.1708 321.821 55.9498 321.491 58.2191C321.149 60.3375 320.198 61.9752 318.649 63.1351C317.102 64.2935 315.11 64.8616 312.687 64.8616H306.294ZM304.849 74.4684H311.61C314.286 74.4684 316.189 75.1242 317.33 76.4232C318.473 77.7351 318.839 79.7136 318.447 82.3736L317.926 85.6256C317.661 87.3789 317.533 89.1938 317.56 91.0976C317.585 92.9896 318.029 94.3124 318.892 95.0816H331.867L331.981 94.3389C331.056 93.5818 330.523 92.3082 330.358 90.5431C330.193 88.7656 330.232 87.151 330.447 85.7015L330.966 82.2977C331.423 79.1456 331.056 76.4738 329.876 74.267C328.697 72.0616 326.578 70.4855 323.507 69.5271C326.604 68.3165 329.026 66.7283 330.789 64.7618C332.553 62.7829 333.657 60.3484 334.125 57.4495C334.873 52.495 333.58 48.5737 330.232 45.6616C326.882 42.7631 322.189 41.3004 316.138 41.3004H297.301L289.195 95.0816H301.766L304.849 74.4684ZM373.174 72.0722L374.621 62.4669H355.556L357.306 50.9057H380.202L381.649 41.3004H346.194L338.089 95.0816H373.505L374.963 85.4752H352.105L354.11 72.0722H373.174ZM398.787 50.9057L393.587 85.4752H400.83C403.557 85.4752 406.044 84.3016 408.302 81.9696C410.559 79.6244 411.967 76.6496 412.538 73.0311L413.983 63.287C414.53 59.5162 414.06 56.5043 412.577 54.2725C411.092 52.0282 408.91 50.9057 406.03 50.9057H398.787ZM407.49 41.3004C413.603 41.3004 418.552 43.3803 422.331 47.5404C426.111 51.7137 427.531 56.9696 426.593 63.3498L425.134 73.0311C424.094 79.7511 421.152 85.1096 416.306 89.0936C411.473 93.0897 405.827 95.0816 399.383 95.0816H379.57L387.676 41.3004H407.49ZM440.626 95.0816H428.03L433.309 59.983H445.918L440.626 95.0816ZM285.601 76.9402L285.678 77.167C284.802 83.5457 282.379 88.2482 278.383 91.299C274.401 94.3389 269.073 95.8496 262.414 95.8632C255.97 95.8496 250.959 93.795 247.394 89.6855C243.83 85.5749 242.536 80.2817 243.526 73.8002L245.238 62.5803C246.253 55.7858 249.005 50.4151 253.47 46.4564C257.949 42.5099 263.427 40.5309 269.91 40.5309C276.531 40.5309 281.53 42.1311 284.917 45.3335C288.29 48.5363 289.483 53.1375 288.494 59.139L288.393 59.3658H276.126C276.621 55.9377 276.278 53.5536 275.123 52.1801C273.957 50.8191 271.737 50.1377 268.464 50.1377C265.762 50.1377 263.453 51.2723 261.513 53.5536C259.585 55.8229 258.341 58.8109 257.797 62.5058L256.097 73.8002C255.501 77.6965 255.855 80.747 257.187 82.9538C258.506 85.1471 260.739 86.2564 263.859 86.2564C266.613 86.2564 268.769 85.5258 270.329 84.0748C271.889 82.6258 272.917 80.2431 273.411 76.9402H285.601ZM496.552 95.0256H484.052L492.103 41.3004H504.616L496.552 95.0256Z" fill="#953233"/>
<path fill-rule="evenodd" clip-rule="evenodd" d="M677.022 66.8137L675.984 73.2495L661.458 87.6098H675.074L673.994 95.0256H647.534L648.511 88.6443L663.306 74.2311H650.544L651.751 66.8137H677.022ZM604.924 95.0816H593.913L595.488 85.5031H606.445L604.924 95.0816ZM485.782 50.9057L487.221 41.2989H453.493L452.057 50.9057H463.192L457.737 87.1389C456.108 97.9669 446.89 101.248 441.464 101.248L250.677 101.24C245.394 101.24 233.949 97.6176 235.598 86.5844L241.169 50.0765C242.991 38.1324 250.053 35.0869 255.133 35.0869C275.989 35.0869 286.744 12.2631 310.878 12.2631H347.671C359.781 12.2631 365.553 35.0578 387.21 35.0578H422.078C435.394 35.0578 436.54 39.4828 434.546 50.8656H447.203C450.625 29.2577 440.925 22.9723 422.078 22.9723H387.21C372.816 22.9723 367.93 0.177643 347.671 0.177643H310.878C284.508 0.177643 268.072 23.7577 255.017 23.7577C239.323 23.7577 231.75 33.9137 228.611 50.0765L222.392 90.7721C222.079 93.6136 220.982 113.327 250.677 113.327L441.464 113.307C453.961 113.588 467.004 108.291 469.43 92.2469L475.685 50.9057H485.782ZM455.358 26.8898H489.086L487.649 36.4962H453.922L455.358 26.8898ZM646.818 66.8137L635.318 76.5725L643.526 95.0256H631.426L627.699 83.1617L622.233 87.7909L621.087 95.0256H610.532L616.622 56.0402H627.178L624.025 76.2282L624.141 76.3552L634.454 66.8137H646.818Z" fill="#00A859"/>
<path fill-rule="evenodd" clip-rule="evenodd" d="M212.32 93.6654H201.309L202.884 84.0869H213.841L212.32 93.6654Z" fill="#00A859"/>
<path fill-rule="evenodd" clip-rule="evenodd" d="M104.064 93.5637H91.5643L99.6162 39.8384H112.128L104.064 93.5637ZM125.114 93.5637H112.614L117.849 58.5226H130.363L125.114 93.5637ZM131.711 49.4732H119.211L120.666 39.8384H133.179L131.711 49.4732ZM151.683 54.8836C153.283 52.9077 155.122 51.3959 157.198 50.3263C159.275 49.257 161.504 48.7158 163.856 48.7158C167.622 48.7158 170.442 50.0624 172.304 52.7436C174.167 55.4252 174.727 59.6371 173.852 65.3571L169.54 93.5637H157.076L161.39 65.3197C161.792 62.6902 161.655 60.8636 161 59.8424C160.346 58.8238 159.237 58.3079 157.664 58.3079C156.353 58.3079 155.145 58.5585 154.013 59.0505C152.88 59.5423 151.886 60.2211 151.029 61.0771L146.087 93.5637H133.649L140.33 49.4585H152.023L151.683 54.8836ZM195.999 93.6196C184.287 93.6196 177.674 86.7824 179.557 74.9438L180.433 69.4356C182.364 57.3037 189.572 48.7876 202.412 48.8144C213.442 48.8383 218.336 56.5557 216.688 66.8916L215.496 74.3743H191.999C190.748 80.6902 192.334 84.0238 197.528 84.0238L195.999 93.6196ZM200.977 58.4077C196.747 58.4077 194.798 61.7064 193.904 65.4198L204.704 65.633C205.259 62.1199 205.638 58.4077 200.977 58.4077Z" fill="#953233"/>
<path d="M45.9719 71.7044C44.9264 78.5114 42.0517 83.9622 37.3353 88.0687C32.6188 92.1755 26.8818 94.2286 20.1248 94.241C13.6535 94.2286 8.58892 92.0882 4.90502 87.795C1.22149 83.514 -0.122514 78.1504 0.873014 71.7044L2.29185 62.1472C3.28738 55.3897 6.16208 49.9514 10.916 45.82C15.6695 41.6886 21.4438 39.6227 28.2508 39.6227C34.6722 39.6227 39.6997 41.763 43.3458 46.0566C46.9923 50.3498 48.3488 55.7133 47.3903 62.1472L45.9719 71.7044ZM35.1076 62.0848C35.6927 58.1401 35.2818 54.9914 33.8634 52.6394C32.457 50.2749 30.1175 49.1052 26.8323 49.1052C23.6216 49.1052 20.9211 50.3248 18.7184 52.7641C16.5157 55.203 15.1468 58.3144 14.587 62.0848L13.1557 71.7044C12.5586 75.6866 12.9565 78.8598 14.3878 81.2243C15.8063 83.5763 18.1957 84.7586 21.5433 84.7586C24.6546 84.7586 27.3176 83.5265 29.5078 81.0751C31.7106 78.6233 33.1041 75.4998 33.6891 71.7044L35.1076 62.0848Z" fill="#00A859"/>
<path fill-rule="evenodd" clip-rule="evenodd" d="M65.9856 54.3916C67.5855 52.4156 69.4242 50.9038 71.5003 49.8342C73.5775 48.765 75.8067 48.2238 78.1587 48.2238C81.9242 48.2238 84.7442 49.5704 86.6067 52.2516C88.4696 54.9332 89.0294 59.1451 88.1548 64.865L83.8427 93.0716H71.379L75.6922 64.8276C76.0947 62.1982 75.9575 60.3715 75.3029 59.3503C74.6483 58.3317 73.5401 57.8158 71.9667 57.8158C70.656 57.8158 69.448 58.0664 68.3161 58.5585C67.183 59.0502 66.1882 59.729 65.3321 60.5851L60.3896 93.0716H47.952L54.6323 48.9664H66.3254L65.9856 54.3916Z" fill="#00A859"/>
</svg>
